<?xml version="1.0" standalone="no"?>
<!DOCTYPE svg PUBLIC "-//W3C//DTD SVG 1.1//EN" "http://www.w3.org/Graphics/SVG/1.1/DTD/svg11.dtd" >
<svg>
<metadata>
Created by FontForge 20090914 at Sat Oct 12 08:57:47 2013
 By www-data
(c) Copyright 1998 E+F Designstudio.
</metadata>
<defs>
<font id="AvantGardeMdITCTT" horiz-adv-x="500" >
  <font-face 
    font-family="AvantGardeMdITCTT"
    font-weight="400"
    font-stretch="normal"
    units-per-em="1000"
    panose-1="0 0 4 0 0 0 0 0 0 0"
    ascent="800"
    descent="-200"
    x-height="500"
    cap-height="667"
    bbox="-100 -250 1243 913"
    underline-thickness="20"
    underline-position="-156"
    unicode-range="U+0020-U+F002"
  />
<missing-glyph 
d="M63 0v750h375v-750h-375zM125 63h250v625h-250v-625z" />
    <glyph glyph-name=".notdef" 
d="M63 0v750h375v-750h-375zM125 63h250v625h-250v-625z" />
    <glyph glyph-name="space" unicode=" " horiz-adv-x="250" 
 />
    <glyph glyph-name="exclam" unicode="!" horiz-adv-x="240" 
d="M73 110h94v-110h-94v110zM73 667h94v-503h-94v503z" />
    <glyph glyph-name="quotedbl" unicode="&#x22;" horiz-adv-x="354" 
d="M149 667l-17 -268h-66l-17 268h100zM305 667l-17 -268h-66l-17 268h100z" />
    <glyph glyph-name="numbersign" unicode="#" horiz-adv-x="600" 
d="M449 281h107l-12 -82h-108l-31 -199h-92l31 199h-119l-32 -199h-91l31 199h-108l12 82h109l18 118h-108l12 82h108l29 186h92l-29 -186h119l29 186h93l-29 -186h106l-13 -82h-106zM357 281l18 118h-120l-18 -118h120z" />
    <glyph glyph-name="dollar" unicode="$" 
d="M198 641l0.000976562 100.995h85v-101c82.667 -14 127 -66 133 -156h-84c-8 50.667 -34.667 76 -80 76c-24.667 0 -44.834 -7.83301 -60.501 -23.5s-23.5 -36.167 -23.5 -61.5c0 -24.667 6.66699 -42.667 20 -54s42.333 -22.666 87 -33.999
c56.667 -14.667 96.667 -39.334 120 -74.001c20 -29.333 30 -64.666 30 -105.999c0 -45.333 -12.5 -84.166 -37.5 -116.499s-59.833 -54.166 -104.5 -65.499v-100h-85v100c-43.333 10 -78 29.667 -104 59c-28 31.333 -43.333 72 -46 122h83
c2.66699 -31.333 13.334 -56 32.001 -74s42.667 -27 72 -27c28 0 51.167 9.83301 69.5 29.5s27.5 44.167 27.5 73.5c0 27.333 -8.83301 48.833 -26.5 64.5s-47.167 28.834 -88.5 39.501c-32.667 8 -56.5 16.333 -71.5 25s-28.5 22 -40.5 40c-20 29.333 -30 62 -30 98
c0 40.667 11.167 75.834 33.5 105.501s52.166 49.5 89.499 59.5z" />
    <glyph glyph-name="percent" unicode="%" horiz-adv-x="877" 
d="M208 680c48.667 0 90 -16.5 124 -49.5s51 -72.833 51 -119.5c0 -47.333 -17 -87.833 -51 -121.5s-75.333 -50.5 -124 -50.5c-48 0 -89 16.833 -123 50.5s-51 74.167 -51 121.5c0 46.667 17 86.5 51 119.5s75 49.5 123 49.5zM668 328c48.667 0 90 -16.5 124 -49.5
s51 -72.833 51 -119.5c0 -47.333 -17 -87.833 -51 -121.5s-75.333 -50.5 -124 -50.5c-48 0 -89 16.833 -123 50.5s-51 74.167 -51 121.5c0 46.667 17 86.5 51 119.5s75 49.5 123 49.5zM606 667l-277 -667h-58l279 667h56zM208 408c28 0 51.833 10 71.5 30s29.5 44 29.5 72
s-9.83301 51.833 -29.5 71.5s-43.5 29.5 -71.5 29.5c-27.333 0 -50.833 -9.83301 -70.5 -29.5s-29.5 -43.5 -29.5 -71.5s9.83301 -52 29.5 -72s43.167 -30 70.5 -30zM668 56c28 0 51.833 9.83301 71.5 29.5s29.5 43.834 29.5 72.501c0 28 -9.83301 51.833 -29.5 71.5
s-43.5 29.5 -71.5 29.5c-27.333 0 -50.833 -10 -70.5 -30s-29.5 -43.667 -29.5 -71c0 -28.667 9.83301 -52.834 29.5 -72.501s43.167 -29.5 70.5 -29.5z" />
    <glyph glyph-name="ampersand" unicode="&#x26;" horiz-adv-x="627" 
d="M483 410l107.999 -0.00292969l-112 -220l134 -138l-65 -65l-116 117c-26 -38 -52.333 -65.667 -79 -83c-34.667 -22.667 -73 -34 -115 -34c-57.333 0 -105.666 19.167 -144.999 57.5s-59 85.5 -59 141.5c0 42.667 11.667 81.334 35 116.001s54.333 59.334 93 74.001
c-25.333 26.667 -42.333 49 -51 67s-13 40 -13 66c0 48.667 16.333 89.334 49 122.001s72.667 49 120 49c46.667 0 86 -16.5 118 -49.5s48 -73.5 48 -121.5c0 -70.667 -37.333 -124 -112 -160l88 -87zM229.999 438.997l22.999 -23.002c34.667 20 57.334 36.167 68.001 48.5
s16 28.5 16 48.5s-6.83301 36.833 -20.5 50.5s-30.5 20.5 -50.5 20.5c-20.667 0 -37.667 -7.16699 -51 -21.5s-20 -32.166 -20 -53.499c0 -23.333 11.667 -46.666 35 -69.999zM366.998 170.995l-141 138c-63.333 -34.667 -95 -75.667 -95 -123
c0 -29.333 10.167 -54 30.5 -74s45.833 -30 76.5 -30c54.667 0 97.667 29.667 129 89z" />
    <glyph glyph-name="quotesingle" unicode="'" horiz-adv-x="198" 
d="M149 667l-17 -268h-66l-17 268h100z" />
    <glyph glyph-name="parenleft" unicode="(" horiz-adv-x="326" 
d="M223 3c17.333 -19.333 45 -43.667 83 -73v-110c-82.667 39.333 -150 101.333 -202 186c-46.667 76 -70 158.333 -70 247c0 88 24.5 171.333 73.5 250s113.167 137.667 192.5 177v-109c-62 -52.667 -105 -102 -129 -148c-26.667 -51.333 -40 -107.666 -40 -168.999
c0 -98.667 30.667 -182.334 92 -251.001z" />
    <glyph glyph-name="parenright" unicode=")" horiz-adv-x="326" 
d="M102 497c-18 20 -45.333 44.3311 -82 72.998v110c81.333 -38.667 148.666 -100.667 201.999 -186c46.667 -75.333 70 -157.666 70 -246.999c0 -88.667 -24.667 -172.167 -74 -250.5s-113.666 -137.166 -192.999 -176.499v109c62.667 52.667 106 102 130 148
c26.667 51.333 40 107.333 40 168c0 97.333 -31 181.333 -93 252z" />
    <glyph glyph-name="asterisk" unicode="*" 
d="M98 579l122 -42l-2 130h64l-2 -130l122 42l20 -60l-124 -38l78 -104l-51 -37l-75 106l-75 -107l-51 38l78 104l-124 38z" />
    <glyph glyph-name="plus" unicode="+" 
d="M33 293v84h172v165h90v-165h172v-84h-172v-165h-90v165h-172z" />
    <glyph glyph-name="comma" unicode="," horiz-adv-x="213" 
d="M60 110l93 0.000976562v-100c0 -70.667 -31 -112.334 -93 -125.001v56c22 9.33301 33 26.333 33 51v8h-33v110z" />
    <glyph glyph-name="hyphen" unicode="-" horiz-adv-x="251" 
d="M251 303v-93h-251v93h251z" />
    <glyph glyph-name="hyphen" unicode="&#x2010;" horiz-adv-x="251" 
d="M251 303v-93h-251v93h251z" />
    <glyph glyph-name="period" unicode="." horiz-adv-x="213" 
d="M153 110v-110h-93v110h93z" />
    <glyph glyph-name="slash" unicode="/" horiz-adv-x="402" 
d="M-10 -167l284 834h82l-285 -834h-81z" />
    <glyph glyph-name="zero" unicode="0" 
d="M252 680c61.333 0 112.332 -21.001 152.999 -63.001s61 -94.333 61 -157v-246c0 -77.333 -26 -136.666 -78 -177.999c-41.333 -32.667 -87.666 -49 -138.999 -49c-43.333 0 -82.5 11.5 -117.5 34.5s-61.833 54.167 -80.5 93.5c-11.333 24.667 -17 60 -17 106v233
c0 66 20.5 120.167 61.5 162.5s93.167 63.5 156.5 63.5zM250.999 594.999c-37.333 0 -67.168 -12.167 -89.501 -36.5s-33.5 -57.166 -33.5 -98.499v-246c0 -44 11 -78.667 33 -104s52.333 -38 91 -38c36.667 0 65.834 12.833 87.501 38.5s32.5 60.167 32.5 103.5v246
c0 41.333 -10.833 74.166 -32.5 98.499s-51.167 36.5 -88.5 36.5z" />
    <glyph glyph-name="one" unicode="1" 
d="M126 667h192v-667h-93v581h-99v86z" />
    <glyph glyph-name="two" unicode="2" 
d="M457 85l0.000976562 -85.0029h-418v78l263 267c40 40.667 60 81.334 60 122.001c0 35.333 -11 65.5 -33 90.5s-49 37.5 -81 37.5c-34.667 0 -63.167 -13 -85.5 -39s-33.5 -59.333 -33.5 -100c0 -8 0.333008 -13.667 1 -17h-94v7c0 68.667 19.5 124.834 58.5 168.501
s89.167 65.5 150.5 65.5c58 0 107.667 -21.167 149 -63.5s62 -93.166 62 -152.499c0 -34 -8.33301 -67.333 -25 -100c-12.667 -24.667 -35.334 -54 -68.001 -88l-185 -191h279z" />
    <glyph glyph-name="three" unicode="3" 
d="M236 -13c-59.333 0 -109.666 20.168 -150.999 60.501s-62 89.833 -62 148.5h93c1.33301 -38 13.333 -68.167 36 -90.5s52.334 -33.5 89.001 -33.5c33.333 0 61.666 12 84.999 36s35 53.333 35 88c0 34 -12 62.333 -36 85s-53.667 34 -89 34h-34v94h32
c30 0 53.833 8.5 71.5 25.5s26.5 39.833 26.5 68.5c0 25.333 -8.83301 47 -26.5 65s-38.834 27 -63.501 27c-52.667 0 -82.667 -31.667 -90 -95h-93c2.66699 53.333 21.334 96.666 56.001 129.999s78 50 130 50c51.333 0 94.166 -18 128.499 -54s51.5 -81 51.5 -135
c0 -26.667 -4.16699 -48.667 -12.5 -66s-24.5 -37.333 -48.5 -60c60 -38 90 -93.667 90 -167c0 -58.667 -21.167 -108.5 -63.5 -149.5s-93.833 -61.5 -154.5 -61.5z" />
    <glyph glyph-name="four" unicode="4" 
d="M315 667h94v-477h70v-85h-70v-105h-94v105h-304v90zM118 190h197v320z" />
    <glyph glyph-name="five" unicode="5" 
d="M50 324l56.001 343.002h304v-86h-227l-25 -147c26.667 17.333 57.667 26 93 26c63.333 0 116.333 -22.333 159 -67s64 -100.334 64 -167.001c0 -68 -21.833 -124.833 -65.5 -170.5s-97.834 -68.5 -162.501 -68.5c-61.333 0 -112.833 19.667 -154.5 59s-65.5 91 -71.5 155
h93c7.33301 -40 23 -71.5 47 -94.5s53 -34.5 87 -34.5c36.667 0 68.167 14.5 94.5 43.5s39.5 63.5 39.5 103.5c0 45.333 -13 82.666 -39 111.999s-59 44 -99 44c-44 0 -81.333 -23 -112 -69z" />
    <glyph glyph-name="six" unicode="6" 
d="M70 374l186.999 292.998h111l-141 -219c16 2.66699 29 4 39 4c60.667 0 111.5 -21.667 152.5 -65s61.5 -96.666 61.5 -159.999c0 -68 -22 -125 -66 -171s-98.333 -69 -163 -69c-63.333 0 -117.666 22.833 -162.999 68.5s-68 100.834 -68 165.501c0 50 16.667 101 50 153z
M252.999 366.998c-38.667 0 -71.667 -14.3311 -99 -42.998s-41 -63.667 -41 -105c0 -40.667 13.5 -75.334 40.5 -104.001s59.5 -43 97.5 -43c37.333 0 69.333 14.167 96 42.5s40 62.5 40 102.5c0 41.333 -13.167 76.666 -39.5 105.999s-57.833 44 -94.5 44z" />
    <glyph glyph-name="seven" unicode="7" 
d="M64 581v86h387v-86l-245 -581h-104l252 581h-290z" />
    <glyph glyph-name="eight" unicode="8" 
d="M431 497c0 -51.333 -19.667 -94.333 -59 -129c59.333 -40.667 89 -97 89 -169c0 -58.667 -20.667 -108.667 -62 -150s-91 -62 -149 -62c-58.667 0 -108.5 20.167 -149.5 60.5s-61.5 89.833 -61.5 148.5c0 69.333 29 126.666 87 171.999
c-36.667 36.667 -55 79.667 -55 129c0 50.667 17.667 93.834 53 129.501s78 53.5 128 53.5c48.667 0 90.667 -18 126 -54s53 -79 53 -129zM250 411c25.333 0 46.168 8.66797 62.501 26.001s24.5 39.666 24.5 66.999c0 25.333 -8.33301 46.833 -25 64.5s-37 26.5 -61 26.5
c-24.667 0 -45.334 -9 -62.001 -27s-25 -39.667 -25 -65c0 -26 8.33301 -47.833 25 -65.5s37 -26.5 61 -26.5zM249.002 72.001c32.667 0 60.501 12 83.501 36s34.5 52.667 34.5 86s-11.5 61.833 -34.5 85.5s-50.5 35.5 -82.5 35.5c-32.667 0 -60.334 -12.167 -83.001 -36.5
s-34 -53.5 -34 -87.5c0 -32.667 11.333 -60.667 34 -84s50 -35 82 -35z" />
    <glyph glyph-name="nine" unicode="9" 
d="M429 293l-185.999 -293h-111l142 219c-16.667 -2.66699 -29.667 -4 -39 -4c-60.667 0 -111.667 21.667 -153 65s-62 96.666 -62 159.999c0 68 22 125 66 171s98.333 69 163 69c63.333 0 117.666 -22.833 162.999 -68.5s68 -100.5 68 -164.5
c0 -49.333 -17 -100.666 -51 -153.999zM248.001 301c38 0 70.668 13.833 98.001 41.5s41 61.5 41 101.5v5c0 40 -13.5 74.333 -40.5 103s-59.5 43 -97.5 43c-37.333 0 -69.333 -14.167 -96 -42.5s-40 -62.5 -40 -102.5c0 -41.333 13.167 -76.5 39.5 -105.5
s58.166 -43.5 95.499 -43.5z" />
    <glyph glyph-name="colon" unicode=":" horiz-adv-x="213" 
d="M153 110v-110h-93v110h93zM153 500v-110h-93v110h93z" />
    <glyph glyph-name="semicolon" unicode=";" horiz-adv-x="213" 
d="M60 110l93 0.000976562v-100c0 -70.667 -31 -112.334 -93 -125.001v56c22 9.33301 33 26.333 33 51v8h-33v110zM153 500.001v-110h-93v110h93z" />
    <glyph glyph-name="less" unicode="&#x3c;" 
d="M33 370l434 208v-89l-338 -158l337 -158l1 -89l-434 209v77z" />
    <glyph glyph-name="equal" unicode="=" 
d="M33 381v79h434v-79h-434zM33 222v79h434v-79h-434z" />
    <glyph glyph-name="greater" unicode="&#x3e;" 
d="M467 293l-434 -209v90l338 157l-337 158l-1 89l434 -208v-77z" />
    <glyph glyph-name="question" unicode="?" horiz-adv-x="450" 
d="M164 110h93v-110h-93v110zM335 320c-25.333 -22 -43.334 -43.332 -54.001 -63.999s-18.667 -49 -24 -85h-93c2 78 36 147.667 102 209c37.333 34.667 56 66 56 94c0 31.333 -10.333 57.666 -31 78.999s-46 32 -76 32c-62 0 -97.667 -36 -107 -108h-95
c3.33301 60 23.833 108.833 61.5 146.5s84.834 56.5 141.501 56.5c54.667 0 101.667 -19.833 141 -59.5s59 -87.167 59 -142.5c0 -59.333 -20 -106 -60 -140z" />
    <glyph glyph-name="at" unicode="@" horiz-adv-x="733" 
d="M476 436l10.001 55h64l-40 -204c-4 -20.667 -6 -35.667 -6 -45c0 -28 11 -42 33 -42c26 0 49.667 18.667 71 56s32 79 32 125c0 69.333 -24 126.333 -72 171s-109.333 67 -184 67c-81.333 0 -149.833 -28 -205.5 -84s-83.5 -124.667 -83.5 -206
c0 -60 16 -114.333 48 -163s73.667 -82.334 125 -101.001c36.667 -13.333 76.334 -20 119.001 -20c73.333 0 141 14 203 42l16 -58c-64 -27.333 -136.667 -41 -218 -41c-104 0 -189.167 32 -255.5 96s-99.5 146 -99.5 246c0 97.333 33.667 179.5 101 246.5
s149.666 100.5 246.999 100.5c90.667 0 166 -28 226 -84s90 -126.333 90 -211c0 -62 -16.5 -116.667 -49.5 -164s-71.167 -71 -114.5 -71c-19.333 0 -35.833 5.83301 -49.5 17.5s-21.834 26.834 -24.501 45.501c-30.667 -45.333 -72 -68 -124 -68
c-40.667 0 -74.334 15 -101.001 45s-40 68 -40 114c0 55.333 17.333 102.833 52 142.5s75.667 59.5 123 59.5c50.667 0 86.334 -22.333 107.001 -67zM350.001 206c29.333 0 54.165 13.833 74.498 41.5s30.5 61.167 30.5 100.5c0 26.667 -7.16699 48.167 -21.5 64.5
s-33.166 24.5 -56.499 24.5c-30 0 -56 -13.167 -78 -39.5s-33 -57.5 -33 -93.5c0 -29.333 7.83301 -53 23.5 -71s35.834 -27 60.501 -27z" />
    <glyph glyph-name="A" unicode="A" horiz-adv-x="594" 
d="M341 667l253 -667h-103l-74 197h-240l-74 -197h-103l253 667h88zM212 286h171l-85 254z" />
    <glyph glyph-name="B" unicode="B" horiz-adv-x="521" 
d="M266 0h-199v667h173c65.333 0 116.333 -17 153 -51s55 -78.667 55 -134c0 -48.667 -20 -90.667 -60 -126c66 -39.333 99 -93.666 99 -162.999c0 -60.667 -22 -109.334 -66 -146.001c-37.333 -31.333 -89 -47 -155 -47zM164 300l0.000976562 -210.999h106
c35.333 0 64.166 9.66699 86.499 29s33.5 44.666 33.5 75.999c0 33.333 -11.5 59.333 -34.5 78s-55.5 28 -97.5 28h-94zM164.001 577.001v-188h79c72 0 108 31 108 93c0 63.333 -37.667 95 -113 95h-74z" />
    <glyph glyph-name="C" unicode="C" horiz-adv-x="707" 
d="M559 164l118.999 0.000976562c-31.333 -56 -73.666 -99.5 -126.999 -130.5s-112 -46.5 -176 -46.5c-93.333 0 -173.666 34.167 -240.999 102.5s-101 150.166 -101 245.499c0 96 33.333 177.5 100 244.5s147.667 100.5 243 100.5c135.333 0 237.666 -61 306.999 -183h-117
c-54 62.667 -116.667 94 -188 94c-68.667 0 -127 -25 -175 -75s-72 -110.333 -72 -181c0 -70 24.167 -130.667 72.5 -182s105.833 -77 172.5 -77c71.333 0 132.333 29.333 183 88z" />
    <glyph glyph-name="D" unicode="D" horiz-adv-x="657" 
d="M274 0l-206.999 0.000976562v667h236c92 0 166.667 -29.667 224 -89c64.667 -66.667 97 -149.334 97 -248.001c0 -94 -28 -171.667 -84 -233c-58.667 -64.667 -147.334 -97 -266.001 -97zM164.001 577.001v-488h79c89.333 0 157 18.667 203 56c54 44 81 105.667 81 185
c0 71.333 -23.667 131.333 -71 180c-44 44.667 -101.333 67 -172 67h-120z" />
    <glyph glyph-name="E" unicode="E" horiz-adv-x="469" 
d="M427 89v-89h-360v667h360v-90h-263v-196h263v-89h-263v-203h263z" />
    <glyph glyph-name="F" unicode="F" horiz-adv-x="430" 
d="M164 288v-288h-97v667h336v-90h-239v-200h239v-89h-239z" />
    <glyph glyph-name="G" unicode="G" horiz-adv-x="750" 
d="M297 332h421.001c-1.33301 -98.667 -34.833 -180.834 -100.5 -246.501s-146.834 -98.5 -243.501 -98.5c-94.667 0 -175.167 33.5 -241.5 100.5s-99.5 148.5 -99.5 244.5c0 97.333 33 179.666 99 246.999s146.333 101 241 101c62.667 0 120.667 -16.167 174 -48.5
s95 -76.166 125 -131.499h-113c-56 60.667 -116.667 91 -182 91c-68 0 -126 -25.333 -174 -76s-72 -111.667 -72 -183c0 -69.333 24.333 -129.333 73 -180s106.667 -76 174 -76c58 0 110.667 20 158 60c29.333 24.667 53.333 60.334 72 107.001h-311v89z" />
    <glyph glyph-name="H" unicode="H" horiz-adv-x="603" 
d="M536 667v-667h-97v290h-275v-290h-97v667h97v-288h275v288h97z" />
    <glyph glyph-name="I" unicode="I" horiz-adv-x="231" 
d="M164 667v-667h-97v667h97z" />
    <glyph glyph-name="J" unicode="J" horiz-adv-x="428" 
d="M271 667h97v-496c0 -52.667 -17.333 -96.5 -52 -131.5s-78.667 -52.5 -132 -52.5c-46 0 -86.333 13.667 -121 41s-55.667 62.333 -63 105h100c15.333 -38 42 -57 80 -57c26.667 0 48.5 9.66699 65.5 29s25.5 44.333 25.5 75v487z" />
    <glyph glyph-name="K" unicode="K" horiz-adv-x="539" 
d="M278 336l261 -336h-120l-255 336v-336h-97v667h97v-331l255 331h120z" />
    <glyph glyph-name="L" unicode="L" horiz-adv-x="412" 
d="M395 89v-89h-328v667h97v-578h231z" />
    <glyph glyph-name="M" unicode="M" horiz-adv-x="841" 
d="M774 667v-667h-97v563l-227 -563h-59l-227 563v-563h-97v667h153l200 -511l201 511h153z" />
    <glyph glyph-name="N" unicode="N" horiz-adv-x="663" 
d="M597 667v-667h-101l-332 515v-515h-97v667h106l326 -508v508h98z" />
    <glyph glyph-name="O" unicode="O" horiz-adv-x="760" 
d="M380 680c96.667 0 178.667 -33.667 246 -101s101 -149.333 101 -246c0 -95.333 -33.833 -176.833 -101.5 -244.5s-149.5 -101.5 -245.5 -101.5s-177.833 33.833 -245.5 101.5s-101.5 149.167 -101.5 244.5c0 96.667 33.667 178.667 101 246s149.333 101 246 101zM380 76
c70.667 0 129.833 24.6689 177.5 74.002s71.5 110.666 71.5 183.999c0 72 -24 132.833 -72 182.5s-107 74.5 -177 74.5s-129 -24.833 -177 -74.5s-72 -110.5 -72 -182.5c0 -72.667 24 -133.834 72 -183.501s107 -74.5 177 -74.5z" />
    <glyph glyph-name="P" unicode="P" horiz-adv-x="517" 
d="M260 263h-96v-263h-97v667h232c57.333 0 104.333 -18.667 141 -56s55 -85 55 -143c0 -55.333 -17.333 -101.666 -52 -138.999c-22.667 -24.667 -47.667 -41.834 -75 -51.501s-63.333 -14.5 -108 -14.5zM164 577v-225h100c41.333 0 73.833 10.333 97.5 31s35.5 49 35.5 85
c0 72.667 -44.667 109 -134 109h-99z" />
    <glyph glyph-name="Q" unicode="Q" horiz-adv-x="753" 
d="M735 77l0.000976562 -90c-61.333 0.666992 -117.333 17.667 -168 51c-61.333 -34 -125.333 -51 -192 -51c-94.667 0 -175.334 34 -242.001 102s-100 150.333 -100 247s33 178.167 99 244.5s147.333 99.5 244 99.5c96 0 177.333 -33.667 244 -101s100 -149.333 100 -246
c0 -78 -27.333 -155.667 -82 -233c28 -15.333 57.333 -23 88 -23h9zM380.001 76c39.333 0 73 10 101 30c-80.667 60 -155 90 -223 90c-30.667 0 -56.667 -5.33301 -78 -16c49.333 -69.333 116 -104 200 -104zM444.001 238c43.333 -25.333 81.667 -51.666 115 -78.999
c42.667 54 64 112 64 174c0 71.333 -24 132.166 -72 182.499s-105.667 75.5 -173 75.5c-68.667 0 -127.167 -25.5 -175.5 -76.5s-72.5 -112.833 -72.5 -185.5c0 -20 3.33301 -41.333 10 -64c34 14 76 21 126 21c64 0 123.333 -16 178 -48z" />
    <glyph glyph-name="R" unicode="R" horiz-adv-x="549" 
d="M321 248l187 -248.001h-122l-222 310v-310h-97v667h206c79.333 0 139 -19 179 -57s60 -90.333 60 -157c0 -77.333 -28 -133.666 -84 -168.999c-28 -18 -63.667 -30 -107 -36zM164 576.999v-254h67c122.667 0 184 43.333 184 130c0 37.333 -13.5 67.333 -40.5 90
s-62.833 34 -107.5 34h-103z" />
    <glyph glyph-name="S" unicode="S" horiz-adv-x="460" 
d="M414 494l-98.998 0.00195312c-2 29.333 -11.333 52.833 -28 70.5s-37.334 26.5 -62.001 26.5c-24 0 -45 -9.16699 -63 -27.5s-27 -39.833 -27 -64.5c0 -26 7.66699 -45.833 23 -59.5s44.166 -26.5 86.499 -38.5s73.333 -23.667 93 -35s37.167 -28 52.5 -50
c23.333 -33.333 35 -72 35 -116c0 -60.667 -19.667 -111.334 -59 -152.001s-88.333 -61 -147 -61c-60 0 -109.333 19.667 -148 59s-58.667 89.666 -60 150.999h96c8 -80.667 45.667 -121 113 -121c30.667 0 56.334 10.667 77.001 32s31 47.666 31 78.999
c0 47.333 -27.667 80.333 -83 99l-24 8l-28 9c-38 12 -62.667 21 -74 27s-23.333 16.333 -36 31c-30 33.333 -45 74.333 -45 123c0 56.667 18.167 103.5 54.5 140.5s82.166 55.5 137.499 55.5c52 0 95 -17.167 129 -51.5s52.333 -79.166 55 -134.499z" />
    <glyph glyph-name="T" unicode="T" horiz-adv-x="375" 
d="M237 577v-577h-98v577h-128v90h353v-90h-127z" />
    <glyph glyph-name="U" unicode="U" horiz-adv-x="567" 
d="M410 667l97 -0.000976562v-463c0 -60 -20.333 -110 -61 -150c-46 -44.667 -100.667 -67 -164 -67c-62.667 0 -115.334 20.833 -158.001 62.5s-64 93.167 -64 154.5v463h97v-450c0 -43.333 11.333 -77.666 34 -102.999s53.667 -38 93 -38
c52.667 0 90.334 21.667 113.001 65c8.66699 16 13 41.333 13 76v450z" />
    <glyph glyph-name="V" unicode="V" horiz-adv-x="586" 
d="M590 667l-267 -667h-59l-269 667h105l194 -500l193 500h103z" />
    <glyph glyph-name="W" unicode="W" horiz-adv-x="814" 
d="M800 667l-186 -667h-85l-122 466l-122 -466h-86l-186 667h101l128 -502l130 502h71l128 -499l130 499h99z" />
    <glyph glyph-name="X" unicode="X" horiz-adv-x="564" 
d="M562 0h-115l-166 254l-167 -254h-114l221 334l-221 333h116l165 -253l167 253h116l-223 -333z" />
    <glyph glyph-name="Y" unicode="Y" horiz-adv-x="510" 
d="M304 240v-240h-97v240l-207 427h109l147 -313l146 313h108z" />
    <glyph glyph-name="Z" unicode="Z" horiz-adv-x="457" 
d="M433 89v-89h-410v89l290 488h-274v90h382v-90l-287 -488h299z" />
    <glyph glyph-name="bracketleft" unicode="[" horiz-adv-x="326" 
d="M162 97c0 -41.333 6.66602 -74.668 19.999 -100.001s36 -47.666 68 -66.999v-110c-55.333 22 -99.833 55.333 -133.5 100s-50.5 92.667 -50.5 144v356c0 60 15.333 111.333 46 154c16 22.667 32.333 41 49 55c24.667 21.333 54.334 38.333 89.001 51v-109
c-58.667 -36 -88 -89.333 -88 -160v-314z" />
    <glyph glyph-name="backslash" unicode="\" 
d="M26 750h88l341 -833h-88z" />
    <glyph glyph-name="bracketright" unicode="]" horiz-adv-x="326" 
d="M163 403c0 40.667 -6.66797 73.833 -20.001 99.5s-35.666 48.167 -66.999 67.5v110c55.333 -22 99.833 -55.333 133.5 -100s50.5 -92.667 50.5 -144v-356c0 -60 -15.333 -111.333 -46 -154c-15.333 -20.667 -32 -39 -50 -55c-24.667 -20.667 -54 -37.667 -88 -51v109
c58 36.667 87 90 87 160v314z" />
    <glyph glyph-name="asciicircum" unicode="^" 
d="M250 598l-135 -242h-96l172 313h118l172 -313h-96z" />
    <glyph glyph-name="underscore" unicode="_" 
d="M0 -141v80h500v-80h-500z" />
    <glyph glyph-name="grave" unicode="`" 
d="M326 608l-44 -55l-174 131l43 55z" />
    <glyph glyph-name="a" unicode="a" horiz-adv-x="621" 
d="M561 500l0.000976562 -500h-86v78c-16 -24 -34 -42.333 -54 -55c-38.667 -24 -83.334 -36 -134.001 -36c-72.667 0 -133.334 25 -182.001 75s-73 112 -73 186c0 76 24.833 139.167 74.5 189.5s111.834 75.5 186.501 75.5c38 0 73.667 -7.83301 107 -23.5
s58.333 -36.167 75 -61.5v72h86zM296.001 72c47.333 0 87.8311 17.168 121.498 51.501s50.5 75.833 50.5 124.5c0 50 -16.667 92.5 -50 127.5s-74 52.5 -122 52.5c-47.333 0 -87.666 -17.333 -120.999 -52s-50 -77 -50 -127c0 -48.667 16.833 -90.334 50.5 -125.001
s73.834 -52 120.501 -52z" />
    <glyph glyph-name="b" unicode="b" horiz-adv-x="617" 
d="M147 71v-71h-87v667h94v-237c41.333 56.667 99 85 173 85c70.667 0 131.334 -26.167 182.001 -78.5s76 -114.833 76 -187.5c0 -73.333 -24.833 -135.333 -74.5 -186s-110.834 -76 -183.501 -76c-79.333 0 -139.333 28 -180 84zM322 430
c-48 0 -88.5 -17.501 -121.5 -52.501s-49.5 -77.833 -49.5 -128.5c0 -49.333 16.5 -91.166 49.5 -125.499s73.167 -51.5 120.5 -51.5c46.667 0 86.667 17.5 120 52.5s50 76.833 50 125.5c0 50 -16.5 92.5 -49.5 127.5s-72.833 52.5 -119.5 52.5z" />
    <glyph glyph-name="c" unicode="c" horiz-adv-x="558" 
d="M429 165l104.002 -0.00195312c-18.667 -54.667 -50 -98 -94 -130s-94.667 -48 -152 -48c-72 0 -132.5 25.333 -181.5 76s-73.5 113.334 -73.5 188.001c0 73.333 24.667 135.333 74 186s110.333 76 183 76c57.333 0 109.166 -17.167 155.499 -51.5
s75.833 -77.166 88.5 -128.499h-104c-34.667 63.333 -81.334 95 -140.001 95c-47.333 0 -86.5 -16.833 -117.5 -50.5s-46.5 -75.834 -46.5 -126.501c0 -48.667 15.833 -90.667 47.5 -126s69.5 -53 113.5 -53c30 0 58 8.33301 84 25s45.667 39.334 59 68.001z" />
    <glyph glyph-name="d" unicode="d" horiz-adv-x="616" 
d="M556 667l0.000976562 -667h-87v71c-44.667 -56 -104.334 -84 -179.001 -84c-73.333 0 -134.666 25.333 -183.999 76s-74 114 -74 190c0 72.667 24.167 134.167 72.5 184.5s107.166 75.5 176.499 75.5c35.333 0 70 -7.33301 104 -22s60 -33.667 78 -57v233h93zM295.001 72
c49.333 0 90.667 17.668 124 53.001s50 79.333 50 132c0 48 -16.833 88.5 -50.5 121.5s-75.167 49.5 -124.5 49.5c-48 0 -88.167 -16.833 -120.5 -50.5s-48.5 -75.834 -48.5 -126.501c0 -50 16.5 -92.333 49.5 -127s73.167 -52 120.5 -52z" />
    <glyph glyph-name="e" unicode="e" horiz-adv-x="574" 
d="M432 157l93.999 -0.000976562c-18.667 -52 -49.667 -93.333 -93 -124s-92 -46 -146 -46c-70 0 -130 25.833 -180 77.5s-75 113.834 -75 186.501c0 73.333 25 136 75 188s110.667 78 182 78c69.333 0 128.833 -25.5 178.5 -76.5s74.5 -112.167 74.5 -183.5
c0 -10.667 -1 -26.667 -3 -48h-413c10 -41.333 29.833 -74.5 59.5 -99.5s64.834 -37.5 105.501 -37.5c61.333 0 108.333 28.333 141 85zM164.999 376.999c-20 -22.667 -33 -54.666 -39 -95.999h323c-2 41.333 -18.833 76.666 -50.5 105.999s-68.5 44 -110.5 44
c-50 0 -91 -18 -123 -54z" />
    <glyph glyph-name="f" unicode="f" horiz-adv-x="283" 
d="M167 415v-415h-94v415h-44v85h44v23c0 46.667 19 84.667 57 114c26 20 63.667 30 113 30h12v-82h-10c-52 0 -78 -20.667 -78 -62v-23h88v-85h-88z" />
    <glyph glyph-name="g" unicode="g" horiz-adv-x="627" 
d="M480 500h86.999v-444c0 -74.667 -25.667 -135.5 -77 -182.5s-117.333 -70.5 -198 -70.5c-70 0 -131 24.333 -183 73c-25.333 23.333 -45.333 51.666 -60 84.999h105c35.333 -48 83 -72 143 -72c52.667 0 95.167 15.5 127.5 46.5s48.5 71.5 48.5 121.5v11
c-48 -54 -106.333 -81 -175 -81c-72 0 -134.333 26.167 -187 78.5s-79 114.5 -79 186.5c0 72.667 26.167 134.334 78.5 185.001s115.833 76 190.5 76s134.334 -24.667 179.001 -74v61zM297.999 72c50 0 91.833 18.168 125.5 54.501s50.5 79.833 50.5 130.5
c0 47.333 -17 87.666 -51 120.999s-75.333 50 -124 50c-48 0 -89 -17.333 -123 -52s-51 -76.667 -51 -126c0 -48.667 17 -90.5 51 -125.5s74.667 -52.5 122 -52.5z" />
    <glyph glyph-name="h" unicode="h" horiz-adv-x="557" 
d="M501 313l0.000976562 -313h-94v283c0 96.667 -40.333 145 -121 145c-40.667 0 -73 -13 -97 -39s-36 -61.333 -36 -106v-283h-93v667h93v-218c33.333 42.667 81.333 64 144 64c61.333 0 110.666 -18.167 147.999 -54.5s56 -84.833 56 -145.5z" />
    <glyph glyph-name="i" unicode="i" horiz-adv-x="213" 
d="M60 500h93v-500h-93v500zM60 667h93v-110h-93v110z" />
    <glyph glyph-name="j" unicode="j" horiz-adv-x="213" 
d="M60 500l93 0.000976562v-486c0 -46 -1.66699 -76.333 -5 -91c-6.66699 -29.333 -22.667 -55 -48 -77c-30 -26 -64.333 -40.333 -103 -43v99c26 1.33301 43 9.16602 51 23.499s12 43.833 12 88.5v486zM60 667.001h93v-110h-93v110z" />
    <glyph glyph-name="k" unicode="k" horiz-adv-x="474" 
d="M153 259l180 241h111l-181 -236l209 -264h-117l-202 259v-259h-93v667h93v-408z" />
    <glyph glyph-name="l" unicode="l" horiz-adv-x="213" 
d="M60 667h93v-667h-93v667z" />
    <glyph glyph-name="m" unicode="m" horiz-adv-x="871" 
d="M815 305v-304.997h-94v278c0 100 -39.667 150 -119 150c-41.333 0 -72.333 -13.333 -93 -40c-17.333 -22.667 -26 -59.334 -26 -110.001v-278h-93v278c0 53.333 -8.83301 91.666 -26.5 114.999s-46.834 35 -87.501 35c-48 0 -83.333 -18.333 -106 -55
c-11.333 -18.667 -17 -50.334 -17 -95.001v-278h-93v500h87v-54c34 44.667 82 67 144 67c34.667 0 66.334 -7.66699 95.001 -23s49 -35.333 61 -60c35.333 55.333 90.333 83 165 83c62.667 0 112.167 -18.5 148.5 -55.5s54.5 -87.833 54.5 -152.5z" />
    <glyph glyph-name="n" unicode="n" horiz-adv-x="559" 
d="M503 307l0.00195312 -306.999h-94v272c0 48 -7 83 -21 105c-21.333 34 -56 51 -104 51c-40.667 0 -72.334 -13.833 -95.001 -41.5s-34 -65.834 -34 -114.501v-272h-95v500h87v-53c33.333 44 82.666 66 147.999 66c62 0 112.167 -19 150.5 -57s57.5 -87.667 57.5 -149z
" />
    <glyph glyph-name="o" unicode="o" horiz-adv-x="603" 
d="M301 513c74.667 0 138.334 -25.333 191.001 -76s79 -112 79 -184c0 -73.333 -26.333 -136 -79 -188s-116.334 -78 -191.001 -78c-74 0 -137.333 26 -190 78s-79 114.667 -79 188c0 72 26.333 133.333 79 184s116 76 190 76zM301 72c48.667 0 90.167 17.5 124.5 52.5
s51.5 77.167 51.5 126.5c0 48.667 -17.167 90.334 -51.5 125.001s-75.833 52 -124.5 52s-90.167 -17.333 -124.5 -52s-51.5 -76.334 -51.5 -125.001c0 -49.333 17.167 -91.5 51.5 -126.5s75.833 -52.5 124.5 -52.5z" />
    <glyph glyph-name="p" unicode="p" horiz-adv-x="615" 
d="M153 -167l-93 0.000976562v667h87v-77c40.667 60 100 90 178 90c73.333 0 134.666 -25.833 183.999 -77.5s74 -115.834 74 -192.501c0 -72.667 -24.167 -133.667 -72.5 -183s-108.166 -74 -179.499 -74c-82.667 0 -142 28.667 -178 86v-239zM321 72.001
c47.333 0 87.333 17.1689 120 51.502s49 76.166 49 125.499c0 48.667 -16.833 90.667 -50.5 126s-74.167 53 -121.5 53c-46 0 -85.333 -17.333 -118 -52s-49 -76.334 -49 -125.001c0 -50 16.5 -92.333 49.5 -127s73.167 -52 120.5 -52z" />
    <glyph glyph-name="q" unicode="q" horiz-adv-x="616" 
d="M469 500l87 -0.000976562v-667h-93v236c-44.667 -54.667 -101 -82 -169 -82c-74 0 -136.167 25.333 -186.5 76s-75.5 113.334 -75.5 188.001c0 73.333 25 135.333 75 186s111.333 76 184 76c35.333 0 69.5 -7.33301 102.5 -22s58.167 -34 75.5 -58v67zM299 71.999
c48 0 88.6689 17.167 122.002 51.5s50 76.5 50 126.5s-16.833 92.167 -50.5 126.5s-74.834 51.5 -123.501 51.5s-89.5 -17 -122.5 -51s-49.5 -76 -49.5 -126c0 -50.667 16.667 -93.167 50 -127.5s74.666 -51.5 123.999 -51.5z" />
    <glyph glyph-name="r" unicode="r" horiz-adv-x="288" 
d="M153 273v-273h-93v500h87v-45c30 36.667 73 56 129 58v-96c-82 -6.66699 -123 -54.667 -123 -144z" />
    <glyph glyph-name="s" unicode="s" horiz-adv-x="399" 
d="M201 513c44 0 80.332 -13.6709 108.999 -41.0039s43.334 -62.333 44.001 -105h-93c-6 40.667 -26.667 61 -62 61c-18 0 -32.833 -5.16699 -44.5 -15.5s-17.5 -23.166 -17.5 -38.499c0 -16.667 5.16699 -29.167 15.5 -37.5s31.166 -17.166 62.499 -26.499
c52.667 -16 90.834 -38 114.501 -66s35.5 -60.333 35.5 -97c0 -44 -17 -81.667 -51 -113s-74.667 -47 -122 -47c-50.667 0 -91.5 16 -122.5 48s-47.167 74.667 -48.5 128h94c4 -60.667 31.333 -91 82 -91c22 0 40 6 54 18s21 27.667 21 47s-6.16699 34.5 -18.5 45.5
s-35.5 22.167 -69.5 33.5c-52 16.667 -88.5 36.834 -109.5 60.501s-31.5 50.834 -31.5 81.501c0 44.667 15 81.667 45 111s67.667 44 113 44z" />
    <glyph glyph-name="t" unicode="t" horiz-adv-x="265" 
d="M249 415h-82v-415h-94v415h-68v85h68v167h94v-167h82v-85z" />
    <glyph glyph-name="u" unicode="u" horiz-adv-x="559" 
d="M57 193v306.999h93v-272c0 -48 7 -83 21 -105c21.333 -34 56 -51 104 -51c40.667 0 72.5 13.833 95.5 41.5s34.5 65.834 34.5 114.501v272h94v-500h-87v53c-29.333 -44 -78.333 -66 -147 -66c-62.667 0 -113 19 -151 57s-57 87.667 -57 149z" />
    <glyph glyph-name="v" unicode="v" horiz-adv-x="456" 
d="M358 500h100l-196 -500h-66l-198 500h100l131 -358z" />
    <glyph glyph-name="w" unicode="w" horiz-adv-x="709" 
d="M601 500h100l-185 -500h-52l-109 336l-109 -336h-52l-186 500h100l112 -325l104 325h62l104 -325z" />
    <glyph glyph-name="x" unicode="x" horiz-adv-x="472" 
d="M234 335l109 165h114l-163 -244l174 -256h-111l-123 177l-120 -177h-109l173 256l-168 244h114z" />
    <glyph glyph-name="y" unicode="y" horiz-adv-x="495" 
d="M396 500h101l-276 -667h-97l73 177l-199 490h101l147 -388z" />
    <glyph glyph-name="z" unicode="z" horiz-adv-x="395" 
d="M43 415v85h320v-94l-226 -321h244v-85h-361v72l239 343h-216z" />
    <glyph glyph-name="braceleft" unicode="{" 
d="M283 362c0 -32.667 -4.33301 -57.498 -13 -74.498s-24.334 -31.833 -47.001 -44.5c22.667 -12.667 38.334 -28 47.001 -46s13 -43 13 -75v-150c0 -34 5.83301 -56.333 17.5 -67s35.5 -16 71.5 -16h8v-78l-23 -1h-21c-50.667 0 -87 11.333 -109 34s-33 60 -33 112v162
c0 51.333 -19 81.666 -57 90.999v74c38 9.33301 57 37.666 57 84.999v170c0 49.333 11.333 84.833 34 106.5s59.667 32.5 111 32.5c12 0 25.667 -0.333008 41 -1v-78c-40.667 0 -67 -5 -79 -15s-18 -32 -18 -66v-155z" />
    <glyph glyph-name="bar" unicode="|" 
d="M205 -250v1000h90v-1000h-90z" />
    <glyph glyph-name="braceright" unicode="}" 
d="M231 125c0 32.667 4.33301 57.3301 13 73.9971s24.667 31.667 48 45c-22.667 12.667 -38.5 27.834 -47.5 45.501s-13.5 42.5 -13.5 74.5v151c0 34 -5.66699 56.333 -17 67s-35 16 -71 16h-9v78l24 1h20c50.667 0 87.167 -11.5 109.5 -34.5s33.5 -60.167 33.5 -111.5v-162
c0 -28.667 4.16699 -49.667 12.5 -63s22.833 -22.666 43.5 -27.999v-74c-37.333 -9.33301 -56 -37.666 -56 -84.999v-170c0 -49.333 -11.5 -84.833 -34.5 -106.5s-60.167 -32.5 -111.5 -32.5c-12 0 -25.667 0.333008 -41 1v78c40.667 0 67 5 79 15s18 32 18 66v155z" />
    <glyph glyph-name="asciitilde" unicode="~" horiz-adv-x="667" 
d="M226 644c-30.667 0 -58.002 -22.666 -82.002 -67.999l-52 33c22.667 46.667 44 78.667 64 96s45.667 26 77 26c26 0 62.667 -10.333 110 -31c44 -19.333 75 -29 93 -29c18.667 0 34 4.5 46 13.5s25.333 25.167 40 48.5l53 -31c-24 -48.667 -50 -81.334 -78 -98.001
c-22.667 -13.333 -46.667 -20 -72 -20c-23.333 0 -52.666 7.66699 -87.999 23l-53 23c-21.333 9.33301 -40.666 14 -57.999 14z" />
    <glyph glyph-name="nonbreakingspace" unicode="&#xa0;" horiz-adv-x="333" 
 />
    <glyph glyph-name="exclamdown" unicode="&#xa1;" horiz-adv-x="240" 
d="M73 333h94v-500h-94v500zM73 500h94v-110h-94v110z" />
    <glyph glyph-name="cent" unicode="&#xa2;" 
d="M258 214c43.333 0 76.667 16.333 100 49h106c-27.333 -73.333 -82.333 -119 -165 -137v-88h-85v88c-56.667 12.667 -100.834 38.167 -132.501 76.5s-47.5 85.5 -47.5 141.5c0 54 16.333 100.167 49 138.5s76.334 62.833 131.001 73.5v86h85v-86
c84.667 -20.667 140.334 -68.667 167.001 -144h-107c-18 36 -52 54 -102 54c-36.667 0 -67.334 -12.167 -92.001 -36.5s-37 -54.5 -37 -90.5c0 -35.333 12.5 -65 37.5 -89s55.833 -36 92.5 -36z" />
    <glyph glyph-name="sterling" unicode="&#xa3;" 
d="M398 194c0 17.333 -4.00098 34.3359 -12.001 51.0029h100c3.33301 -18.667 5 -35.334 5 -50.001c0 -60 -18.167 -107.5 -54.5 -142.5s-85.833 -52.5 -148.5 -52.5h-250v85h115c14.667 25.333 22 51.666 22 78.999c0 58 -23 101.667 -69 131h-97v85h31
c-10.667 25.333 -16 50 -16 74c0 63.333 21.333 116.833 64 160.5s94.667 65.5 156 65.5c55.333 0 102.833 -16.333 142.5 -49s64.834 -76.334 75.501 -131.001h-101c-27.333 63.333 -67.333 95 -120 95c-34.667 0 -64 -12.833 -88 -38.5s-36 -57.167 -36 -94.5
c0 -32.667 11.333 -60 34 -82h196v-85h-114c24 -37.333 36 -81 36 -131c0 -24.667 -3.66699 -51 -11 -79h29c34 0 61 9.83301 81 29.5s30 46.167 30 79.5z" />
    <glyph glyph-name="currency" unicode="&#xa4;" horiz-adv-x="667" 
d="M94 78l-49 49.0029l97 97c-33.333 43.333 -50 90.666 -50 141.999c0 47.333 16.333 93.666 49 138.999l-98 98l50 50l98 -98c46 33.333 93.667 50 143 50c48 0 95 -16.333 141 -49l97 97l50 -50l-97 -97c32.667 -45.333 49 -92.333 49 -141s-16 -95.334 -48 -140.001
l98 -97l-49 -50l-98 97c-44 -32.667 -91.333 -49 -142 -49c-48 0 -96 16 -144 48zM492 365.003c0 44 -15.5 81.5 -46.5 112.5s-68.167 46.5 -111.5 46.5c-44 0 -81.5 -15.5 -112.5 -46.5s-46.5 -68.5 -46.5 -112.5s15.5 -81.5 46.5 -112.5s68.5 -46.5 112.5 -46.5
c43.333 0 80.5 15.5 111.5 46.5s46.5 68.5 46.5 112.5z" />
    <glyph glyph-name="yen" unicode="&#xa5;" 
d="M204 0v195h-147v77h141l-49 107h-112v77h76l-98 211h105l131 -293l130 293h104l-97 -211h75v-77h-111l-49 -107h140v-77h-146v-195h-93z" />
    <glyph glyph-name="section" unicode="&#xa7;" 
d="M251 680c51.333 0 93.002 -15.0029 125.002 -45.0029s51 -71.667 57 -125h-97c-10 52 -38.667 78 -86 78c-22.667 0 -41.5 -6.66699 -56.5 -20s-22.5 -30 -22.5 -50c0 -28 20.667 -52.333 62 -73l124 -63c42 -21.333 71.5 -43 88.5 -65s25.5 -48.667 25.5 -80
c0 -54 -25.667 -100.333 -77 -139c32.667 -38.667 49 -77.334 49 -116.001c0 -53.333 -18 -97 -54 -131s-82.333 -51 -139 -51s-103.334 17.833 -140.001 53.5s-56.667 82.834 -60 141.501h96c5.33301 -70 41 -105 107 -105c29.333 0 53 8.16699 71 24.5s27 37.833 27 64.5
c0 32.667 -27 63.334 -81 92.001l-137 72c-38 20 -64.833 40.833 -80.5 62.5s-23.5 49.5 -23.5 83.5c0 60.667 27.667 107.334 83 140.001c-23.333 32.667 -35 64.334 -35 95.001c0 44 16.667 81 50 111s74.666 45 123.999 45zM318.002 299.997l-149 75.998
c-34.667 -21.333 -52 -47.666 -52 -78.999c0 -29.333 17.333 -53 52 -71l160 -83c35.333 28.667 53 56.334 53 83.001c0 16 -4.33301 29.167 -13 39.5s-25.667 21.833 -51 34.5z" />
    <glyph glyph-name="dieresis" unicode="&#xa8;" 
d="M278 573v110h91v-110h-91zM131 573v110h91v-110h-91z" />
    <glyph glyph-name="copyright" unicode="&#xa9;" horiz-adv-x="773" 
d="M387 680c95.333 0 176.833 -33.833 244.5 -101.5s101.5 -149.5 101.5 -245.5c0 -95.333 -33.833 -176.833 -101.5 -244.5s-149.167 -101.5 -244.5 -101.5c-96 0 -177.833 33.833 -245.5 101.5s-101.5 149.167 -101.5 244.5c0 96 33.833 177.833 101.5 245.5
s149.5 101.5 245.5 101.5zM387 40c80 0 148.332 28.667 204.999 86s85 126.333 85 207c0 81.333 -28.333 150.666 -85 207.999s-125 86 -205 86s-148.5 -28.667 -205.5 -86s-85.5 -126.666 -85.5 -207.999c0 -80.667 28.333 -149.667 85 -207s125.334 -86 206.001 -86z
M497.999 237l78.0029 0.000976562c-0.666992 -2 -1.66699 -3.66699 -3 -5c-40.667 -71.333 -102 -107 -184 -107c-56.667 0 -105.334 20.667 -146.001 62s-61 90.666 -61 147.999s20.167 106 60.5 146s89.5 60 147.5 60c80 0 142 -36.667 186 -110l3 -5h-77l-1 1
c-30.667 36.667 -67.334 55 -110.001 55c-40 0 -74.167 -14.5 -102.5 -43.5s-42.5 -63.833 -42.5 -104.5s14.167 -75.667 42.5 -105s62.166 -44 101.499 -44c37.333 0 73 17 107 51z" />
    <glyph glyph-name="ordfeminine" unicode="&#xaa;" horiz-adv-x="333" 
d="M303 667l-0.000976562 -267h-51v35c-20.667 -28 -53 -42 -97 -42c-39.333 0 -72.166 13.333 -98.499 40s-39.5 59.667 -39.5 99c0 40.667 13.5 74.5 40.5 101.5s60.5 40.5 100.5 40.5c36 0 67.333 -13.333 94 -40v33h51zM22.999 330h280v-33h-280v33zM158.999 443
c24.667 0 45.668 8.66797 63.001 26.001s26 38.333 26 63c0 25.333 -8.5 47 -25.5 65s-37.833 27 -62.5 27s-45.5 -8.83301 -62.5 -26.5s-25.5 -39.167 -25.5 -64.5c0 -24.667 8.66699 -45.834 26 -63.501s37.666 -26.5 60.999 -26.5z" />
    <glyph glyph-name="guillemotleft" unicode="&#xab;" horiz-adv-x="358" 
d="M188 302l123 123v-102l-67 -67l67 -67v-101l-123 121v93zM40 302l125 123v-102l-67 -67l67 -67v-101l-125 121v93z" />
    <glyph glyph-name="logicalnot" unicode="&#xac;" 
d="M467 0h-90v186h-344v81h434v-267z" />
    <glyph glyph-name="minus" unicode="&#xad;" horiz-adv-x="549" 
d="M46 205v62h457v-62h-457z" />
    <glyph glyph-name="minus" unicode="&#x2212;" horiz-adv-x="549" 
d="M46 205v62h457v-62h-457z" />
    <glyph glyph-name="registered" unicode="&#xae;" horiz-adv-x="513" 
d="M48 557c0 57.333 20.333 106.333 61 147s90 61 148 61c57.333 0 106.333 -20.333 147 -61s61 -89.667 61 -147c0 -58 -20.333 -107.333 -61 -148s-89.667 -61 -147 -61c-58 0 -107.333 20.333 -148 61s-61 90 -61 148zM432 557c0 48 -17.167 89.167 -51.5 123.5
s-75.5 51.5 -123.5 51.5c-48.667 0 -90.167 -17.167 -124.5 -51.5s-51.5 -75.5 -51.5 -123.5c0 -48.667 17.167 -90.167 51.5 -124.5s75.833 -51.5 124.5 -51.5c48 0 89.167 17.167 123.5 51.5s51.5 75.833 51.5 124.5zM283 527l64 -80h-52l-69 90v-90h-41v220h74
c56.667 0 85 -24 85 -72c0 -39.333 -20.333 -62 -61 -68zM226 630v-73h19c38.667 0 58 12.667 58 38c0 23.333 -15.333 35 -46 35h-31z" />
    <glyph glyph-name="macron" unicode="&#xaf;" 
d="M400 663v-65h-300v65h300z" />
    <glyph glyph-name="macron" unicode="&#x2c9;" 
d="M400 663v-65h-300v65h300z" />
    <glyph glyph-name="degree" unicode="&#xb0;" 
d="M250 381c-40 0 -74.333 14 -103 42s-43 61.667 -43 101s14.333 73 43 101s63 42 103 42s74.333 -14 103 -42s43 -61.667 43 -101s-14.333 -73 -43 -101s-63 -42 -103 -42zM250 611c-24.667 0 -45.667 -8.5 -63 -25.5s-26 -37.5 -26 -61.5s8.66699 -44.5 26 -61.5
s38.333 -25.5 63 -25.5s45.667 8.5 63 25.5s26 37.5 26 61.5s-8.66699 44.5 -26 61.5s-38.333 25.5 -63 25.5z" />
    <glyph glyph-name="plusminus" unicode="&#xb1;" 
d="M33 349v83h172v166h90v-166h172v-83h-172v-166h-90v166h-172zM33 61v84h434v-84h-434z" />
    <glyph glyph-name="acute" unicode="&#xb4;" 
d="M392 684l-174 -131l-44 55l175 131z" />
    <glyph glyph-name="mu" unicode="&#xb5;" 
d="M130 -169l-90 0.000976562v648h90v-265c0 -38 3.83301 -66.833 11.5 -86.5s21.167 -35.834 40.5 -48.501s41.333 -19 66 -19c43.333 0 76.333 18.667 99 56c15.333 25.333 23 60.333 23 105v258h89v-479h-89v77c-28 -59.333 -69.333 -89 -124 -89
c-48 0 -86.667 23.333 -116 70v-227z" />
    <glyph glyph-name="mu" unicode="&#x3bc;" 
d="M130 -169l-90 0.000976562v648h90v-265c0 -38 3.83301 -66.833 11.5 -86.5s21.167 -35.834 40.5 -48.501s41.333 -19 66 -19c43.333 0 76.333 18.667 99 56c15.333 25.333 23 60.333 23 105v258h89v-479h-89v77c-28 -59.333 -69.333 -89 -124 -89
c-48 0 -86.667 23.333 -116 70v-227z" />
    <glyph glyph-name="paragraph" unicode="&#xb6;" horiz-adv-x="606" 
d="M296 -97h-78v414c-4 -0.666992 -8.66699 -1 -14 -1c-53.333 0 -96.833 16 -130.5 48s-50.5 73.667 -50.5 125c0 38.667 9.83301 72.667 29.5 102s46 49.333 79 60s71.167 16 114.5 16h289v-71h-64v-693h-77v693h-98v-693z" />
    <glyph glyph-name="periodcentered" unicode="&#xb7;" horiz-adv-x="110" 
d="M110 405v-130h-110v130h110z" />
    <glyph glyph-name="periodcentered" unicode="&#x2219;" horiz-adv-x="110" 
d="M110 405v-130h-110v130h110z" />
    <glyph glyph-name="cedilla" unicode="&#xb8;" 
d="M239 0h45.999l-25 -61c4.66699 0.666992 10.667 1 18 1c20.667 0 38.167 -7.33301 52.5 -22s21.5 -32.667 21.5 -54c0 -24.667 -8.33301 -45 -25 -61s-37.667 -24 -63 -24c-23.333 0 -42.666 6.66699 -57.999 20s-24 31.333 -26 54h48c6.66699 -19.333 19 -29 37 -29
c25.333 0 38 12.333 38 37c0 24 -12.667 36 -38 36c-10.667 0 -21 -4.66699 -31 -14l-30 30z" />
    <glyph glyph-name="ordmasculine" unicode="&#xba;" horiz-adv-x="333" 
d="M167 674c40 0 74.167 -13.667 102.5 -41s42.5 -60 42.5 -98c0 -39.333 -14.167 -72.833 -42.5 -100.5s-62.5 -41.5 -102.5 -41.5c-40.667 0 -75.167 13.833 -103.5 41.5s-42.5 61.167 -42.5 100.5c0 38 14.167 70.667 42.5 98s62.833 41 103.5 41zM28 330h277v-33h-277
v33zM167 443c24.667 0 45.834 8.83301 63.501 26.5s26.5 39.167 26.5 64.5c0 24.667 -8.83301 45.834 -26.5 63.501s-38.834 26.5 -63.501 26.5s-46 -8.83301 -64 -26.5s-27 -38.834 -27 -63.501s9 -46 27 -64s39.333 -27 64 -27z" />
    <glyph glyph-name="guillemotright" unicode="&#xbb;" horiz-adv-x="359" 
d="M169 211l-122 -123v103l67 66l-67 67v101l123 -121zM319 211l-122 -123v103l67 66l-67 67v101l122 -121v-93z" />
    <glyph glyph-name="questiondown" unicode="&#xbf;" horiz-adv-x="450" 
d="M286 390h-93v110h93v-110zM115 180c25.333 22 43.332 43.332 53.999 63.999s18.667 49 24 85h93c-2 -78 -36 -147.667 -102 -209c-37.333 -34.667 -56 -66 -56 -94c0 -31.333 10.333 -57.666 31 -78.999s46 -32 76 -32c62.667 0 98 36 106 108h95
c-2.66699 -60 -22.667 -108.833 -60 -146.5s-84.666 -56.5 -141.999 -56.5c-54.667 0 -101.667 19.833 -141 59.5s-59 87.167 -59 142.5c0 59.333 20 106 60 140z" />
    <glyph glyph-name="Agrave" unicode="&#xc0;" horiz-adv-x="594" 
d="M341 667l253 -667h-103l-74 197h-240l-74 -197h-103l253 667h88zM423 782l-36 -65l-203 110l38 70zM212 286h171l-85 254z" />
    <glyph glyph-name="Aacute" unicode="&#xc1;" horiz-adv-x="594" 
d="M341 667l253 -667h-103l-74 197h-240l-74 -197h-103l253 667h88zM410 827l-203 -110l-36 65l201 115zM212 286h171l-85 254z" />
    <glyph glyph-name="Acircumflex" unicode="&#xc2;" horiz-adv-x="594" 
d="M341 667l253 -667h-103l-74 197h-240l-74 -197h-103l253 667h88zM341 856l127 -121h-108l-61 62l-66 -62h-107l125 121h90zM212 286h171l-85 254z" />
    <glyph glyph-name="Atilde" unicode="&#xc3;" horiz-adv-x="594" 
d="M341 667l253 -667h-103l-74 197h-240l-74 -197h-103l253 667h88zM428 844l39.001 -57.999c-34.667 -27.333 -68.334 -41 -101.001 -41c-12.667 0 -43 5.66699 -91 17c-16.667 4 -30 6 -40 6c-17.333 0 -39 -6.33301 -65 -19l-43 58c38 24 69.667 36 95 36
c10 0 25.667 -2.66699 47 -8c42.667 -10.667 70.667 -16 84 -16c14 0 34 6 60 18c3.33301 1.33301 8.33301 3.66602 15 6.99902zM212.001 286.001h171l-85 254z" />
    <glyph glyph-name="Adieresis" unicode="&#xc4;" horiz-adv-x="594" 
d="M341 667l253 -667h-103l-74 197h-240l-74 -197h-103l253 667h88zM327 740v110h93v-110h-93zM174 740v110h93v-110h-93zM212 286h171l-85 254z" />
    <glyph glyph-name="Aring" unicode="&#xc5;" horiz-adv-x="594" 
d="M341 667l253 -667h-103l-74 197h-240l-74 -197h-103l253 667h88zM197 813c0 28 9.83301 51.667 29.5 71s43.167 29 70.5 29s50.833 -9.66699 70.5 -29s29.5 -43 29.5 -71c0 -27.333 -9.83301 -50.833 -29.5 -70.5s-43.167 -29.5 -70.5 -29.5s-50.833 9.83301 -70.5 29.5
s-29.5 43.167 -29.5 70.5zM212 286h171l-85 254zM344 813c0 13.333 -4.66699 24.833 -14 34.5s-20.333 14.5 -33 14.5s-23.667 -4.83301 -33 -14.5s-14 -21.167 -14 -34.5s4.5 -24.666 13.5 -33.999s20.167 -14 33.5 -14s24.5 4.66699 33.5 14s13.5 20.666 13.5 33.999z" />
    <glyph glyph-name="AE" unicode="&#xc6;" horiz-adv-x="802" 
d="M-20 0l448 667h332v-90h-227v-196h227v-89h-227v-203h227v-89h-324v185h-220l-122 -185h-114zM280 274h156v248z" />
    <glyph glyph-name="Ccedilla" unicode="&#xc7;" horiz-adv-x="707" 
d="M678 164c-64 -112.667 -160.999 -171.668 -290.999 -177.001l-22 -53c5.33301 0.666992 12 1 20 1c22.667 0 41.5 -7.66699 56.5 -23s22.5 -34.666 22.5 -57.999c0 -26.667 -9 -48.667 -27 -66s-40.667 -26 -68 -26c-24.667 0 -45.167 7.33301 -61.5 22
s-25.833 34 -28.5 58h51c8 -20.667 21.333 -31 40 -31c27.333 0 41 13.333 41 40c0 25.333 -13.667 38 -41 38c-12 0 -22.667 -4.66699 -32 -14l-33 31l32 83c-86.667 10.667 -159 49 -217 115s-87 143 -87 231c0 96 33.333 177.5 100 244.5s147.667 100.5 243 100.5
c135.333 0 237.666 -61 306.999 -183h-117c-54 62.667 -116.667 94 -188 94c-68.667 0 -127 -25 -175 -75s-72 -110.333 -72 -181c0 -70 24.167 -130.667 72.5 -182s105.833 -77 172.5 -77c71.333 0 132.333 29.333 183 88h119z" />
    <glyph glyph-name="Egrave" unicode="&#xc8;" horiz-adv-x="469" 
d="M427 89v-89h-360v667h360v-90h-263v-196h263v-89h-263v-203h263zM373 782l-36 -65l-203 110l38 70z" />
    <glyph glyph-name="Eacute" unicode="&#xc9;" horiz-adv-x="469" 
d="M427 89v-89h-360v667h360v-90h-263v-196h263v-89h-263v-203h263zM360 827l-203 -110l-37 65l201 115z" />
    <glyph glyph-name="Ecircumflex" unicode="&#xca;" horiz-adv-x="469" 
d="M427 89v-89h-360v667h360v-90h-263v-196h263v-89h-263v-203h263zM291 856l127 -121h-108l-62 62l-65 -62h-107l125 121h90z" />
    <glyph glyph-name="Edieresis" unicode="&#xcb;" horiz-adv-x="469" 
d="M427 89v-89h-360v667h360v-90h-263v-196h263v-89h-263v-203h263zM277 740v110h93v-110h-93zM123 740v110h94v-110h-94z" />
    <glyph glyph-name="Igrave" unicode="&#xcc;" horiz-adv-x="231" 
d="M164 667v-667h-97v667h97zM242 782l-37 -65l-203 110l39 70z" />
    <glyph glyph-name="Iacute" unicode="&#xcd;" horiz-adv-x="231" 
d="M164 667v-667h-97v667h97zM228 827l-203 -110l-36 65l201 115z" />
    <glyph glyph-name="Icircumflex" unicode="&#xce;" horiz-adv-x="231" 
d="M164 667v-667h-97v667h97zM151 856l103 -121h-87l-50 62l-53 -62h-87l101 121h73z" />
    <glyph glyph-name="Idieresis" unicode="&#xcf;" horiz-adv-x="231" 
d="M164 667v-667h-97v667h97zM137 740v110h88v-110h-88zM6 740v110h88v-110h-88z" />
    <glyph glyph-name="Ntilde" unicode="&#xd1;" horiz-adv-x="663" 
d="M597 667v-667h-101l-332 515v-515h-97v667h106l326 -508v508h98zM462 844l40 -58c-35.333 -27.333 -69 -41 -101 -41c-12.667 0 -43 5.66699 -91 17c-16.667 4 -30 6 -40 6c-17.333 0 -39 -6.33301 -65 -19l-43 58c38 24 69.667 36 95 36c10 0 25.667 -2.66699 47 -8
c42.667 -10.667 70.667 -16 84 -16s33 6 59 18c5.33301 2 10.333 4.33301 15 7z" />
    <glyph glyph-name="Ograve" unicode="&#xd2;" horiz-adv-x="760" 
d="M380 680c96.667 0 178.667 -33.667 246 -101s101 -149.333 101 -246c0 -95.333 -33.833 -176.833 -101.5 -244.5s-149.5 -101.5 -245.5 -101.5s-177.833 33.833 -245.5 101.5s-101.5 149.167 -101.5 244.5c0 96.667 33.667 178.667 101 246s149.333 101 246 101zM506 782
l-36 -65l-203 110l38 70zM380 76c70.667 0 129.833 24.6689 177.5 74.002s71.5 110.666 71.5 183.999c0 72 -24 132.833 -72 182.5s-107 74.5 -177 74.5s-129 -24.833 -177 -74.5s-72 -110.5 -72 -182.5c0 -72.667 24 -133.834 72 -183.501s107 -74.5 177 -74.5z" />
    <glyph glyph-name="Oacute" unicode="&#xd3;" horiz-adv-x="760" 
d="M380 680c96.667 0 178.667 -33.667 246 -101s101 -149.333 101 -246c0 -95.333 -33.833 -176.833 -101.5 -244.5s-149.5 -101.5 -245.5 -101.5s-177.833 33.833 -245.5 101.5s-101.5 149.167 -101.5 244.5c0 96.667 33.667 178.667 101 246s149.333 101 246 101zM493 827
l-203 -110l-36 65l201 115zM380 76c70.667 0 129.833 24.6689 177.5 74.002s71.5 110.666 71.5 183.999c0 72 -24 132.833 -72 182.5s-107 74.5 -177 74.5s-129 -24.833 -177 -74.5s-72 -110.5 -72 -182.5c0 -72.667 24 -133.834 72 -183.501s107 -74.5 177 -74.5z" />
    <glyph glyph-name="Ocircumflex" unicode="&#xd4;" horiz-adv-x="760" 
d="M380 680c96.667 0 178.667 -33.667 246 -101s101 -149.333 101 -246c0 -95.333 -33.833 -176.833 -101.5 -244.5s-149.5 -101.5 -245.5 -101.5s-177.833 33.833 -245.5 101.5s-101.5 149.167 -101.5 244.5c0 96.667 33.667 178.667 101 246s149.333 101 246 101zM424 856
l127 -121h-108l-61 62l-66 -62h-107l125 121h90zM380 76c70.667 0 129.833 24.6689 177.5 74.002s71.5 110.666 71.5 183.999c0 72 -24 132.833 -72 182.5s-107 74.5 -177 74.5s-129 -24.833 -177 -74.5s-72 -110.5 -72 -182.5c0 -72.667 24 -133.834 72 -183.501
s107 -74.5 177 -74.5z" />
    <glyph glyph-name="Otilde" unicode="&#xd5;" horiz-adv-x="760" 
d="M380 680c96.667 0 178.667 -33.667 246 -101s101 -149.333 101 -246c0 -95.333 -33.833 -176.833 -101.5 -244.5s-149.5 -101.5 -245.5 -101.5s-177.833 33.833 -245.5 101.5s-101.5 149.167 -101.5 244.5c0 96.667 33.667 178.667 101 246s149.333 101 246 101zM511 844
l39.001 -57.999c-34.667 -27.333 -68.334 -41 -101.001 -41c-12.667 0 -43 5.66699 -91 17c-16.667 4 -30 6 -40 6c-17.333 0 -39 -6.33301 -65 -19l-43 58c38 24 69.667 36 95 36c10 0 25.667 -2.66699 47 -8c42.667 -10.667 70.667 -16 84 -16c14 0 34 6 60 18
c3.33301 1.33301 8.33301 3.66602 15 6.99902zM380.001 76.001c70.667 0 129.833 24.6689 177.5 74.002s71.5 110.666 71.5 183.999c0 72 -24 132.833 -72 182.5s-107 74.5 -177 74.5s-129 -24.833 -177 -74.5s-72 -110.5 -72 -182.5c0 -72.667 24 -133.834 72 -183.501
s107 -74.5 177 -74.5z" />
    <glyph glyph-name="Odieresis" unicode="&#xd6;" horiz-adv-x="760" 
d="M380 680c96.667 0 178.667 -33.667 246 -101s101 -149.333 101 -246c0 -95.333 -33.833 -176.833 -101.5 -244.5s-149.5 -101.5 -245.5 -101.5s-177.833 33.833 -245.5 101.5s-101.5 149.167 -101.5 244.5c0 96.667 33.667 178.667 101 246s149.333 101 246 101zM410 740
v110h93v-110h-93zM257 740v110h93v-110h-93zM380 76c70.667 0 129.833 24.6689 177.5 74.002s71.5 110.666 71.5 183.999c0 72 -24 132.833 -72 182.5s-107 74.5 -177 74.5s-129 -24.833 -177 -74.5s-72 -110.5 -72 -182.5c0 -72.667 24 -133.834 72 -183.501
s107 -74.5 177 -74.5z" />
    <glyph glyph-name="multiply" unicode="&#xd7;" horiz-adv-x="549" 
d="M448 19l-173 174l-174 -174l-44 44l174 173l-174 173l44 44l174 -173l173 172l44 -43l-174 -173l174 -173z" />
    <glyph glyph-name="Oslash" unicode="&#xd8;" horiz-adv-x="760" 
d="M685 671l-64.999 -87c71.333 -69.333 107 -153 107 -251c0 -95.333 -33.833 -176.833 -101.5 -244.5s-149.5 -101.5 -245.5 -101.5c-60.667 0 -117.334 14.667 -170.001 44l-64 -86l-71 52l65 87c-71.333 70 -107 153 -107 249c0 96.667 33.667 178.667 101 246
s149 101 245 101c60.667 0 117 -14 169 -42l63 85zM629.001 334c0 62 -21.668 120.001 -65.001 174.001l-300 -405c35.333 -18 74 -27 116 -27c70.667 0 129.834 24.667 177.501 74s71.5 110.666 71.5 183.999zM131 334.001c0 -64.667 21.332 -123 63.999 -175l299 406
c-35.333 17.333 -72.666 26 -111.999 26c-76.667 0 -139 -28.333 -187 -85c-42.667 -50.667 -64 -108 -64 -172z" />
    <glyph glyph-name="Ugrave" unicode="&#xd9;" horiz-adv-x="567" 
d="M410 667l97 -0.000976562v-463c0 -60 -20.333 -110 -61 -150c-46 -44.667 -100.667 -67 -164 -67c-62.667 0 -115.334 20.833 -158.001 62.5s-64 93.167 -64 154.5v463h97v-450c0 -43.333 11.333 -77.666 34 -102.999s53.667 -38 93 -38
c52.667 0 90.334 21.667 113.001 65c8.66699 16 13 41.333 13 76v450zM410 781.999l-36 -65l-203 110l38 70z" />
    <glyph glyph-name="Uacute" unicode="&#xda;" horiz-adv-x="567" 
d="M410 667l97 -0.000976562v-463c0 -60 -20.333 -110 -61 -150c-46 -44.667 -100.667 -67 -164 -67c-62.667 0 -115.334 20.833 -158.001 62.5s-64 93.167 -64 154.5v463h97v-450c0 -43.333 11.333 -77.666 34 -102.999s53.667 -38 93 -38
c52.667 0 90.334 21.667 113.001 65c8.66699 16 13 41.333 13 76v450zM397 826.999l-203 -110l-37 65l201 115z" />
    <glyph glyph-name="Ucircumflex" unicode="&#xdb;" horiz-adv-x="567" 
d="M410 667l97 -0.000976562v-463c0 -60 -20.333 -110 -61 -150c-46 -44.667 -100.667 -67 -164 -67c-62.667 0 -115.334 20.833 -158.001 62.5s-64 93.167 -64 154.5v463h97v-450c0 -43.333 11.333 -77.666 34 -102.999s53.667 -38 93 -38
c52.667 0 90.334 21.667 113.001 65c8.66699 16 13 41.333 13 76v450zM328 855.999l127 -121h-108l-62 62l-65 -62h-107l125 121h90z" />
    <glyph glyph-name="Udieresis" unicode="&#xdc;" horiz-adv-x="567" 
d="M410 667l97 -0.000976562v-463c0 -60 -20.333 -110 -61 -150c-46 -44.667 -100.667 -67 -164 -67c-62.667 0 -115.334 20.833 -158.001 62.5s-64 93.167 -64 154.5v463h97v-450c0 -43.333 11.333 -77.666 34 -102.999s53.667 -38 93 -38
c52.667 0 90.334 21.667 113.001 65c8.66699 16 13 41.333 13 76v450zM314 739.999v110h93v-110h-93zM160 739.999v110h94v-110h-94z" />
    <glyph glyph-name="germandbls" unicode="&#xdf;" horiz-adv-x="571" 
d="M150 0h-93.001v465c0 63.333 18 115 54 155s83 60 141 60c54.667 0 101.5 -19.333 140.5 -58s58.5 -85 58.5 -139c0 -45.333 -17.333 -81.666 -52 -108.999c46 -11.333 81.667 -35.333 107 -72c22 -32 33 -67 33 -105c0 -60.667 -19.667 -110.834 -59 -150.501
s-88.666 -59.5 -147.999 -59.5c-51.333 0 -96.333 17 -135 51c-21.333 18.667 -37 43 -47 73v-111zM150.999 465l-0.00195312 -290h75c5.33301 -31.333 17.833 -56.333 37.5 -75s43.834 -28 72.501 -28c30.667 0 56.667 11.167 78 33.5s32 49.833 32 82.5
c0 34.667 -12.167 62 -36.5 82s-58.166 30 -101.499 30h-65v83c76.667 2 115 37 115 105c0 30 -10 55.333 -30 76s-44.667 31 -74 31c-68.667 0 -103 -43.333 -103 -130z" />
    <glyph glyph-name="agrave" unicode="&#xe0;" horiz-adv-x="621" 
d="M561 500l0.000976562 -500h-86v78c-16 -24 -34 -42.333 -54 -55c-38.667 -24 -83.334 -36 -134.001 -36c-72.667 0 -133.334 25 -182.001 75s-73 112 -73 186c0 76 24.833 139.167 74.5 189.5s111.834 75.5 186.501 75.5c38 0 73.667 -7.83301 107 -23.5
s58.333 -36.167 75 -61.5v72h86zM406.001 608l-43 -55l-175 131l44 55zM296.001 72c47.333 0 87.8311 17.168 121.498 51.501s50.5 75.833 50.5 124.5c0 50 -16.667 92.5 -50 127.5s-74 52.5 -122 52.5c-47.333 0 -87.666 -17.333 -120.999 -52s-50 -77 -50 -127
c0 -48.667 16.833 -90.334 50.5 -125.001s73.834 -52 120.501 -52z" />
    <glyph glyph-name="aacute" unicode="&#xe1;" horiz-adv-x="621" 
d="M561 500l0.000976562 -500h-86v78c-16 -24 -34 -42.333 -54 -55c-38.667 -24 -83.334 -36 -134.001 -36c-72.667 0 -133.334 25 -182.001 75s-73 112 -73 186c0 76 24.833 139.167 74.5 189.5s111.834 75.5 186.501 75.5c38 0 73.667 -7.83301 107 -23.5
s58.333 -36.167 75 -61.5v72h86zM406.001 684l-174 -131l-44 55l175 131zM296.001 72c47.333 0 87.8311 17.168 121.498 51.501s50.5 75.833 50.5 124.5c0 50 -16.667 92.5 -50 127.5s-74 52.5 -122 52.5c-47.333 0 -87.666 -17.333 -120.999 -52s-50 -77 -50 -127
c0 -48.667 16.833 -90.334 50.5 -125.001s73.834 -52 120.501 -52z" />
    <glyph glyph-name="acircumflex" unicode="&#xe2;" horiz-adv-x="621" 
d="M561 500l0.000976562 -500h-86v78c-16 -24 -34 -42.333 -54 -55c-38.667 -24 -83.334 -36 -134.001 -36c-72.667 0 -133.334 25 -182.001 75s-73 112 -73 186c0 76 24.833 139.167 74.5 189.5s111.834 75.5 186.501 75.5c38 0 73.667 -7.83301 107 -23.5
s58.333 -36.167 75 -61.5v72h86zM345.001 698l115 -135h-103l-55 76l-58 -76h-103l114 135h90zM296.001 72c47.333 0 87.8311 17.168 121.498 51.501s50.5 75.833 50.5 124.5c0 50 -16.667 92.5 -50 127.5s-74 52.5 -122 52.5c-47.333 0 -87.666 -17.333 -120.999 -52
s-50 -77 -50 -127c0 -48.667 16.833 -90.334 50.5 -125.001s73.834 -52 120.501 -52z" />
    <glyph glyph-name="atilde" unicode="&#xe3;" horiz-adv-x="621" 
d="M561 500l0.000976562 -500h-86v78c-16 -24 -34 -42.333 -54 -55c-38.667 -24 -83.334 -36 -134.001 -36c-72.667 0 -133.334 25 -182.001 75s-73 112 -73 186c0 76 24.833 139.167 74.5 189.5s111.834 75.5 186.501 75.5c38 0 73.667 -7.83301 107 -23.5
s58.333 -36.167 75 -61.5v72h86zM434.001 679l37.001 -53.999c-24.667 -30 -56.334 -45 -95.001 -45c-12 0 -40.667 5.66699 -86 17c-16 4 -28.667 6 -38 6c-16 0 -36.333 -6.33301 -61 -19l-40 59c35.333 23.333 65 35 89 35c10 0 25 -2.66699 45 -8
c40.667 -10.667 67 -16 79 -16c10.667 0 29 6 55 18c2.66699 1.33301 7.66699 3.66602 15 6.99902zM296.002 72.001c47.333 0 87.8311 17.168 121.498 51.501s50.5 75.833 50.5 124.5c0 50 -16.667 92.5 -50 127.5s-74 52.5 -122 52.5
c-47.333 0 -87.666 -17.333 -120.999 -52s-50 -77 -50 -127c0 -48.667 16.833 -90.334 50.5 -125.001s73.834 -52 120.501 -52z" />
    <glyph glyph-name="adieresis" unicode="&#xe4;" horiz-adv-x="621" 
d="M561 500l0.000976562 -500h-86v78c-16 -24 -34 -42.333 -54 -55c-38.667 -24 -83.334 -36 -134.001 -36c-72.667 0 -133.334 25 -182.001 75s-73 112 -73 186c0 76 24.833 139.167 74.5 189.5s111.834 75.5 186.501 75.5c38 0 73.667 -7.83301 107 -23.5
s58.333 -36.167 75 -61.5v72h86zM332.001 573v110h90v-110h-90zM184.001 573v110h91v-110h-91zM296.001 72c47.333 0 87.8311 17.168 121.498 51.501s50.5 75.833 50.5 124.5c0 50 -16.667 92.5 -50 127.5s-74 52.5 -122 52.5c-47.333 0 -87.666 -17.333 -120.999 -52
s-50 -77 -50 -127c0 -48.667 16.833 -90.334 50.5 -125.001s73.834 -52 120.501 -52z" />
    <glyph glyph-name="aring" unicode="&#xe5;" horiz-adv-x="621" 
d="M561 500l0.000976562 -500h-86v78c-16 -24 -34 -42.333 -54 -55c-38.667 -24 -83.334 -36 -134.001 -36c-72.667 0 -133.334 25 -182.001 75s-73 112 -73 186c0 76 24.833 139.167 74.5 189.5s111.834 75.5 186.501 75.5c38 0 73.667 -7.83301 107 -23.5
s58.333 -36.167 75 -61.5v72h86zM217.001 653c0 28 9.66699 51.667 29 71s43 29 71 29c27.333 0 50.833 -9.66699 70.5 -29s29.5 -43 29.5 -71c0 -27.333 -9.83301 -50.833 -29.5 -70.5s-43.167 -29.5 -70.5 -29.5c-28 0 -51.667 9.83301 -71 29.5s-29 43.167 -29 70.5z
M296.001 72c47.333 0 87.8311 17.168 121.498 51.501s50.5 75.833 50.5 124.5c0 50 -16.667 92.5 -50 127.5s-74 52.5 -122 52.5c-47.333 0 -87.666 -17.333 -120.999 -52s-50 -77 -50 -127c0 -48.667 16.833 -90.334 50.5 -125.001s73.834 -52 120.501 -52z
M364.999 653.001c0 14 -4.66699 26 -14 36s-20.666 15 -33.999 15s-24.833 -5 -34.5 -15s-14.5 -22 -14.5 -36s4.83301 -25.833 14.5 -35.5s21.167 -14.5 34.5 -14.5s24.666 4.83301 33.999 14.5s14 21.5 14 35.5z" />
    <glyph glyph-name="ae" unicode="&#xe6;" horiz-adv-x="1014" 
d="M982 252c0 -3.33301 -0.668945 -17.668 -2.00195 -43.001h-417c6.66699 -39.333 25.667 -72 57 -98s66.666 -39 105.999 -39c66.667 0 115 28.667 145 86h96c-18.667 -51.333 -50 -92.666 -94 -123.999s-93.667 -47 -149 -47c-57.333 0 -112.333 23.667 -165 71v-58h-85
v58c-50.667 -47.333 -109 -71 -175 -71c-75.333 0 -138.666 25.5 -189.999 76.5s-77 114.5 -77 190.5c0 73.333 25.333 134.833 76 184.5s113.334 74.5 188.001 74.5c74 0 133.333 -24 178 -72v59h85v-59c42.667 48 98.667 72 168 72c70.667 0 130.834 -25.5 180.501 -76.5
s74.5 -112.5 74.5 -184.5zM293.998 71.998c50 0 91.666 17.167 124.999 51.5s50 77.166 50 128.499c0 50 -16.667 91.833 -50 125.5s-74.666 50.5 -123.999 50.5s-90 -16.667 -122 -50s-48 -75.333 -48 -126c0 -51.333 16 -94.166 48 -128.499s72.333 -51.5 121 -51.5z
M562.997 280.998h325.001c-3.33301 44 -19.833 79.5 -49.5 106.5s-66.834 40.5 -111.501 40.5c-46 0 -83.5 -13 -112.5 -39s-46.167 -62 -51.5 -108z" />
    <glyph glyph-name="ccedilla" unicode="&#xe7;" horiz-adv-x="558" 
d="M533 165c-16.667 -50.667 -44.999 -91.834 -84.999 -123.501s-85.667 -49.5 -137 -53.5l-21 -49c4.66699 0.666992 10.667 1 18 1c20.667 0 38.167 -7.33301 52.5 -22s21.5 -32.667 21.5 -54c0 -24.667 -8.33301 -45 -25 -61s-37.667 -24 -63 -24
c-23.333 0 -42.666 6.66699 -57.999 20s-24 31.333 -26 54h48c6.66699 -19.333 19 -29 37 -29c25.333 0 38 12.333 38 37c0 24 -12.667 36 -38 36c-10.667 0 -21 -4.66699 -31 -14l-30 30l31 75c-66.667 4.66699 -122.167 32 -166.5 82s-66.5 110.333 -66.5 181
c0 73.333 24.667 135.333 74 186s110.333 76 183 76c57.333 0 109.166 -17.167 155.499 -51.5s75.833 -77.166 88.5 -128.499h-104c-34.667 63.333 -81.334 95 -140.001 95c-47.333 0 -86.5 -16.833 -117.5 -50.5s-46.5 -75.834 -46.5 -126.501
c0 -48.667 15.833 -90.667 47.5 -126s69.5 -53 113.5 -53c30 0 58 8.33301 84 25s45.667 39.334 59 68.001h104z" />
    <glyph glyph-name="egrave" unicode="&#xe8;" horiz-adv-x="574" 
d="M432 157l93.999 -0.000976562c-18.667 -52 -49.667 -93.333 -93 -124s-92 -46 -146 -46c-70 0 -130 25.833 -180 77.5s-75 113.834 -75 186.501c0 73.333 25 136 75 188s110.667 78 182 78c69.333 0 128.833 -25.5 178.5 -76.5s74.5 -112.167 74.5 -183.5
c0 -10.667 -1 -26.667 -3 -48h-413c10 -41.333 29.833 -74.5 59.5 -99.5s64.834 -37.5 105.501 -37.5c61.333 0 108.333 28.333 141 85zM395.999 607.999l-44 -55l-174 131l44 55zM164.999 376.999c-20 -22.667 -33 -54.666 -39 -95.999h323
c-2 41.333 -18.833 76.666 -50.5 105.999s-68.5 44 -110.5 44c-50 0 -91 -18 -123 -54z" />
    <glyph glyph-name="eacute" unicode="&#xe9;" horiz-adv-x="574" 
d="M432 157l93.999 -0.000976562c-18.667 -52 -49.667 -93.333 -93 -124s-92 -46 -146 -46c-70 0 -130 25.833 -180 77.5s-75 113.834 -75 186.501c0 73.333 25 136 75 188s110.667 78 182 78c69.333 0 128.833 -25.5 178.5 -76.5s74.5 -112.167 74.5 -183.5
c0 -10.667 -1 -26.667 -3 -48h-413c10 -41.333 29.833 -74.5 59.5 -99.5s64.834 -37.5 105.501 -37.5c61.333 0 108.333 28.333 141 85zM395.999 683.999l-174 -131l-44 55l174 131zM164.999 376.999c-20 -22.667 -33 -54.666 -39 -95.999h323
c-2 41.333 -18.833 76.666 -50.5 105.999s-68.5 44 -110.5 44c-50 0 -91 -18 -123 -54z" />
    <glyph glyph-name="ecircumflex" unicode="&#xea;" horiz-adv-x="574" 
d="M432 157l93.999 -0.000976562c-18.667 -52 -49.667 -93.333 -93 -124s-92 -46 -146 -46c-70 0 -130 25.833 -180 77.5s-75 113.834 -75 186.501c0 73.333 25 136 75 188s110.667 78 182 78c69.333 0 128.833 -25.5 178.5 -76.5s74.5 -112.167 74.5 -183.5
c0 -10.667 -1 -26.667 -3 -48h-413c10 -41.333 29.833 -74.5 59.5 -99.5s64.834 -37.5 105.501 -37.5c61.333 0 108.333 28.333 141 85zM330.999 697.999l115 -135h-102l-56 76l-58 -76h-102l113 135h90zM164.999 376.999c-20 -22.667 -33 -54.666 -39 -95.999h323
c-2 41.333 -18.833 76.666 -50.5 105.999s-68.5 44 -110.5 44c-50 0 -91 -18 -123 -54z" />
    <glyph glyph-name="edieresis" unicode="&#xeb;" horiz-adv-x="574" 
d="M432 157l93.999 -0.000976562c-18.667 -52 -49.667 -93.333 -93 -124s-92 -46 -146 -46c-70 0 -130 25.833 -180 77.5s-75 113.834 -75 186.501c0 73.333 25 136 75 188s110.667 78 182 78c69.333 0 128.833 -25.5 178.5 -76.5s74.5 -112.167 74.5 -183.5
c0 -10.667 -1 -26.667 -3 -48h-413c10 -41.333 29.833 -74.5 59.5 -99.5s64.834 -37.5 105.501 -37.5c61.333 0 108.333 28.333 141 85zM321.999 572.999v110h91v-110h-91zM174.999 572.999v110h90v-110h-90zM164.999 376.999c-20 -22.667 -33 -54.666 -39 -95.999h323
c-2 41.333 -18.833 76.666 -50.5 105.999s-68.5 44 -110.5 44c-50 0 -91 -18 -123 -54z" />
    <glyph glyph-name="igrave" unicode="&#xec;" horiz-adv-x="213" 
d="M60 500h93v-500h-93v500zM216 608l-44 -55l-174 131l43 55z" />
    <glyph glyph-name="iacute" unicode="&#xed;" horiz-adv-x="213" 
d="M60 500h93v-500h-93v500zM216 684l-175 -131l-43 55l174 131z" />
    <glyph glyph-name="icircumflex" unicode="&#xee;" horiz-adv-x="213" 
d="M60 500h93v-500h-93v500zM139 698l84 -135h-75l-40 76l-43 -76h-74l82 135h66z" />
    <glyph glyph-name="idieresis" unicode="&#xef;" horiz-adv-x="213" 
d="M60 500h93v-500h-93v500zM128 573v110h86v-110h-86zM0 573v110h85v-110h-85z" />
    <glyph glyph-name="ntilde" unicode="&#xf1;" horiz-adv-x="559" 
d="M503 307l0.00195312 -306.999h-94v272c0 48 -7 83 -21 105c-21.333 34 -56 51 -104 51c-40.667 0 -72.334 -13.833 -95.001 -41.5s-34 -65.834 -34 -114.501v-272h-95v500h87v-53c33.333 44 82.666 66 147.999 66c62 0 112.167 -19 150.5 -57s57.5 -87.667 57.5 -149z
M403.002 679.001l37.001 -53.999c-24.667 -30 -56.334 -45 -95.001 -45c-12 0 -40.667 5.66699 -86 17c-16 4 -28.667 6 -38 6c-16 0 -36.333 -6.33301 -61 -19l-40 59c35.333 23.333 65 35 89 35c10 0 25 -2.66699 45 -8c40.667 -10.667 67 -16 79 -16c10.667 0 29 6 55 18
c2.66699 1.33301 7.66699 3.66602 15 6.99902z" />
    <glyph glyph-name="ograve" unicode="&#xf2;" horiz-adv-x="603" 
d="M301 513c74.667 0 138.334 -25.333 191.001 -76s79 -112 79 -184c0 -73.333 -26.333 -136 -79 -188s-116.334 -78 -191.001 -78c-74 0 -137.333 26 -190 78s-79 114.667 -79 188c0 72 26.333 133.333 79 184s116 76 190 76zM410 608l-43 -55l-175 131l44 55zM301 72
c48.667 0 90.167 17.5 124.5 52.5s51.5 77.167 51.5 126.5c0 48.667 -17.167 90.334 -51.5 125.001s-75.833 52 -124.5 52s-90.167 -17.333 -124.5 -52s-51.5 -76.334 -51.5 -125.001c0 -49.333 17.167 -91.5 51.5 -126.5s75.833 -52.5 124.5 -52.5z" />
    <glyph glyph-name="oacute" unicode="&#xf3;" horiz-adv-x="603" 
d="M301 513c74.667 0 138.334 -25.333 191.001 -76s79 -112 79 -184c0 -73.333 -26.333 -136 -79 -188s-116.334 -78 -191.001 -78c-74 0 -137.333 26 -190 78s-79 114.667 -79 188c0 72 26.333 133.333 79 184s116 76 190 76zM410 684l-174 -131l-44 55l175 131zM301 72
c48.667 0 90.167 17.5 124.5 52.5s51.5 77.167 51.5 126.5c0 48.667 -17.167 90.334 -51.5 125.001s-75.833 52 -124.5 52s-90.167 -17.333 -124.5 -52s-51.5 -76.334 -51.5 -125.001c0 -49.333 17.167 -91.5 51.5 -126.5s75.833 -52.5 124.5 -52.5z" />
    <glyph glyph-name="ocircumflex" unicode="&#xf4;" horiz-adv-x="603" 
d="M301 513c74.667 0 138.334 -25.333 191.001 -76s79 -112 79 -184c0 -73.333 -26.333 -136 -79 -188s-116.334 -78 -191.001 -78c-74 0 -137.333 26 -190 78s-79 114.667 -79 188c0 72 26.333 133.333 79 184s116 76 190 76zM346 698l115 -135h-103l-55 76l-59 -76h-102
l114 135h90zM301 72c48.667 0 90.167 17.5 124.5 52.5s51.5 77.167 51.5 126.5c0 48.667 -17.167 90.334 -51.5 125.001s-75.833 52 -124.5 52s-90.167 -17.333 -124.5 -52s-51.5 -76.334 -51.5 -125.001c0 -49.333 17.167 -91.5 51.5 -126.5s75.833 -52.5 124.5 -52.5z" />
    <glyph glyph-name="otilde" unicode="&#xf5;" horiz-adv-x="603" 
d="M301 513c74.667 0 138.334 -25.333 191.001 -76s79 -112 79 -184c0 -73.333 -26.333 -136 -79 -188s-116.334 -78 -191.001 -78c-74 0 -137.333 26 -190 78s-79 114.667 -79 188c0 72 26.333 133.333 79 184s116 76 190 76zM424 679l36.999 -54
c-23.333 -30 -54.666 -45 -93.999 -45c-12 0 -40.667 5.66699 -86 17c-16 4 -28.667 6 -38 6c-16 0 -36.333 -6.33301 -61 -19l-41 59c35.333 23.333 65.333 35 90 35c9.33301 0 24 -2.66699 44 -8c40 -10.667 66.667 -16 80 -16c12.667 0 31 6 55 18zM300.999 72
c48.667 0 90.167 17.5 124.5 52.5s51.5 77.167 51.5 126.5c0 48.667 -17.167 90.334 -51.5 125.001s-75.833 52 -124.5 52s-90.167 -17.333 -124.5 -52s-51.5 -76.334 -51.5 -125.001c0 -49.333 17.167 -91.5 51.5 -126.5s75.833 -52.5 124.5 -52.5z" />
    <glyph glyph-name="odieresis" unicode="&#xf6;" horiz-adv-x="603" 
d="M301 513c74.667 0 138.334 -25.333 191.001 -76s79 -112 79 -184c0 -73.333 -26.333 -136 -79 -188s-116.334 -78 -191.001 -78c-74 0 -137.333 26 -190 78s-79 114.667 -79 188c0 72 26.333 133.333 79 184s116 76 190 76zM330 573v110h90v-110h-90zM182 573v110h91
v-110h-91zM301 72c48.667 0 90.167 17.5 124.5 52.5s51.5 77.167 51.5 126.5c0 48.667 -17.167 90.334 -51.5 125.001s-75.833 52 -124.5 52s-90.167 -17.333 -124.5 -52s-51.5 -76.334 -51.5 -125.001c0 -49.333 17.167 -91.5 51.5 -126.5s75.833 -52.5 124.5 -52.5z" />
    <glyph glyph-name="divide" unicode="&#xf7;" 
d="M193 513c0 16 5.49902 29.5 16.499 40.5s24.5 16.5 40.5 16.5c15.333 0 28.666 -5.5 39.999 -16.5s17 -24.5 17 -40.5c0 -15.333 -5.66699 -28.5 -17 -39.5s-24.666 -16.5 -39.999 -16.5s-28.666 5.5 -39.999 16.5s-17 24.167 -17 39.5zM192.999 157
c0 15.333 5.49902 28.5 16.499 39.5s24.5 16.5 40.5 16.5c15.333 0 28.666 -5.5 39.999 -16.5s17 -24.167 17 -39.5c0 -16 -5.66699 -29.5 -17 -40.5s-24.666 -16.5 -39.999 -16.5s-28.666 5.5 -39.999 16.5s-17 24.5 -17 40.5zM32.998 293v84h434v-84h-434z" />
    <glyph glyph-name="oslash" unicode="&#xf8;" horiz-adv-x="603" 
d="M526 513l-44 -67c59.333 -50.667 89 -115 89 -193c0 -73.333 -26.333 -136 -79 -188s-116.334 -78 -191.001 -78c-38 0 -73.667 7 -107 21l-46 -71l-71 48l45 69c-60 54.667 -90 121 -90 199c0 72 26.333 133.333 79 184s116 76 190 76c38.667 0 74.334 -7 107.001 -21
l46 71zM477 250c0 46 -15 86 -45 120l-189 -288c20 -6.66699 39.333 -10 58 -10c48.667 0 90.167 17.333 124.5 52s51.5 76.667 51.5 126zM125 250c0 -43.333 15.667 -83.333 47 -120l188 288c-20 6.66699 -39.667 10 -59 10c-48.667 0 -90.167 -17.333 -124.5 -52
s-51.5 -76.667 -51.5 -126z" />
    <glyph glyph-name="ugrave" unicode="&#xf9;" horiz-adv-x="559" 
d="M57 193v306.999h93v-272c0 -48 7 -83 21 -105c21.333 -34 56 -51 104 -51c40.667 0 72.5 13.833 95.5 41.5s34.5 65.834 34.5 114.501v272h94v-500h-87v53c-29.333 -44 -78.333 -66 -147 -66c-62.667 0 -113 19 -151 57s-57 87.667 -57 149zM388 607.999l-43 -55
l-175 131l44 55z" />
    <glyph glyph-name="uacute" unicode="&#xfa;" horiz-adv-x="559" 
d="M57 193v306.999h93v-272c0 -48 7 -83 21 -105c21.333 -34 56 -51 104 -51c40.667 0 72.5 13.833 95.5 41.5s34.5 65.834 34.5 114.501v272h94v-500h-87v53c-29.333 -44 -78.333 -66 -147 -66c-62.667 0 -113 19 -151 57s-57 87.667 -57 149zM388 683.999l-174 -131
l-44 55l175 131z" />
    <glyph glyph-name="ucircumflex" unicode="&#xfb;" horiz-adv-x="559" 
d="M57 193v306.999h93v-272c0 -48 7 -83 21 -105c21.333 -34 56 -51 104 -51c40.667 0 72.5 13.833 95.5 41.5s34.5 65.834 34.5 114.501v272h94v-500h-87v53c-29.333 -44 -78.333 -66 -147 -66c-62.667 0 -113 19 -151 57s-57 87.667 -57 149zM324 697.999l115 -135h-103
l-55 76l-59 -76h-102l114 135h90z" />
    <glyph glyph-name="udieresis" unicode="&#xfc;" horiz-adv-x="559" 
d="M57 193v306.999h93v-272c0 -48 7 -83 21 -105c21.333 -34 56 -51 104 -51c40.667 0 72.5 13.833 95.5 41.5s34.5 65.834 34.5 114.501v272h94v-500h-87v53c-29.333 -44 -78.333 -66 -147 -66c-62.667 0 -113 19 -151 57s-57 87.667 -57 149zM306 572.999v110h91v-110h-91
zM159 572.999v110h90v-110h-90z" />
    <glyph glyph-name="ydieresis" unicode="&#xff;" horiz-adv-x="495" 
d="M396 500h101l-276 -667h-97l73 177l-199 490h101l147 -388zM276 573v110h91v-110h-91zM129 573v110h90v-110h-90z" />
    <glyph glyph-name="dotlessi" unicode="&#x131;" horiz-adv-x="213" 
d="M60 500h93v-500h-93v500z" />
    <glyph glyph-name="OE" unicode="&#x152;" horiz-adv-x="985" 
d="M625 570v96.999h318v-90h-222v-196h222v-89h-222v-203h222v-89h-318v95c-20.667 -27.333 -43 -48 -67 -62c-52.667 -30.667 -111.667 -46 -177 -46c-99.333 0 -182.166 32.667 -248.499 98s-99.5 147 -99.5 245c0 46 10 92.833 30 140.5s46 86.834 78 117.501
c64.667 61.333 145.334 92 242.001 92c51.333 0 98.666 -9.83301 141.999 -29.5s76.666 -46.5 99.999 -80.5zM379 75.999c70.667 0 129.332 23.833 175.999 71.5s70 108.167 70 181.5c0 76.667 -23.333 139.5 -70 188.5s-106 73.5 -178 73.5
c-69.333 0 -127.666 -25.167 -174.999 -75.5s-71 -112.5 -71 -186.5c0 -72 23.667 -132.167 71 -180.5s106.333 -72.5 177 -72.5z" />
    <glyph glyph-name="oe" unicode="&#x153;" horiz-adv-x="1026" 
d="M995 250c0 -0.666992 -0.666016 -14.333 -1.99902 -41h-422c6.66699 -40 25.5 -72.833 56.5 -98.5s67.167 -38.5 108.5 -38.5c69.333 0 119 29 149 87h95c-22.667 -56.667 -56.167 -99.5 -100.5 -128.5s-91.833 -43.5 -142.5 -43.5c-92 0 -163 40 -213 120
c-47.333 -80 -120.333 -120 -219 -120c-78.667 0 -143.834 25 -195.501 75s-77.5 113 -77.5 189c0 75.333 25.333 138 76 188s114 75 190 75c98.667 0 174 -39.667 226 -119c16.667 24.667 33 44 49 58c46 40 100.333 60 163 60c73.333 0 134.833 -25.167 184.5 -75.5
s74.5 -112.833 74.5 -187.5zM298.001 72.001c51.333 0 93.835 16.832 127.502 50.499s50.5 76.167 50.5 127.5s-16.833 93.833 -50.5 127.5s-75.834 50.5 -126.501 50.5s-92.334 -16.667 -125.001 -50s-49 -75.666 -49 -126.999s16.5 -94 49.5 -128s74.167 -51 123.5 -51z
M570.003 281h332c-5.33301 45.333 -21.666 80.333 -48.999 105c-31.333 28 -70.333 42 -117 42c-56.667 0 -101.334 -20 -134.001 -60c-17.333 -21.333 -28 -50.333 -32 -87z" />
    <glyph glyph-name="Ydieresis" unicode="&#x178;" horiz-adv-x="510" 
d="M304 240v-240h-97v240l-207 427h109l147 -313l146 313h108zM285 740v110h93v-110h-93zM132 740v110h93v-110h-93z" />
    <glyph glyph-name="florin" unicode="&#x192;" 
d="M346 543l-5 -25.001h86l-14 -85h-87l-58 -327c-12 -67.333 -26 -116 -42 -146c-10 -18 -24.333 -34.667 -43 -50c-32.667 -26 -73 -39 -121 -39c-16.667 0 -32 2 -46 6l14 78h10c44 0 75.833 10.333 95.5 31s36.834 72.334 51.501 155.001l51 292h-87l14 85h87l6 30
c11.333 57.333 33.666 102.5 66.999 135.5s73.666 49.5 120.999 49.5c6 0 11.333 -0.333008 16 -1l-14 -81c-29.333 -1.33301 -51.666 -10 -66.999 -26s-27 -43.333 -35 -82z" />
    <glyph glyph-name="circumflex" unicode="&#x2c6;" 
d="M294 698l115 -135h-102l-55 76l-59 -76h-102l113 135h90z" />
    <glyph glyph-name="caron" unicode="&#x2c7;" 
d="M206 563l-115 135h102l55 -75l59 75h102l-113 -135h-90z" />
    <glyph glyph-name="breve" unicode="&#x2d8;" 
d="M250 570c-84 0 -137.666 39.667 -160.999 119h70c19.333 -37.333 49.666 -56 90.999 -56c42 0 72.333 18.667 91 56h70c-23.333 -79.333 -77 -119 -161 -119z" />
    <glyph glyph-name="dotaccent" unicode="&#x2d9;" 
d="M205 573v110h90v-110h-90z" />
    <glyph glyph-name="ring" unicode="&#x2da;" 
d="M150 653c0 28 9.83301 51.667 29.5 71s43.167 29 70.5 29s50.833 -9.66699 70.5 -29s29.5 -43 29.5 -71c0 -27.333 -9.83301 -50.833 -29.5 -70.5s-43.167 -29.5 -70.5 -29.5s-50.833 9.83301 -70.5 29.5s-29.5 43.167 -29.5 70.5zM299 653c0 14 -4.83301 26 -14.5 36
s-21.167 15 -34.5 15s-24.833 -5 -34.5 -15s-14.5 -22 -14.5 -36s4.83301 -25.833 14.5 -35.5s21.167 -14.5 34.5 -14.5s24.833 4.83301 34.5 14.5s14.5 21.5 14.5 35.5z" />
    <glyph glyph-name="ogonek" unicode="&#x2db;" 
d="M189 -97c0 36.667 24.335 69 73.002 97h62c-44 -26 -66 -51.667 -66 -77c0 -13.333 5 -24.333 15 -33s22.667 -13 38 -13c11.333 0 24.666 3.33301 39.999 10v-59c-14.667 -6 -33.334 -9 -56.001 -9c-32.667 0 -58.5 7.5 -77.5 22.5s-28.5 35.5 -28.5 61.5z" />
    <glyph glyph-name="tilde" unicode="&#x2dc;" 
d="M373 679l37 -54c-23.333 -30 -55 -45 -95 -45c-10.667 0 -39 5.66699 -85 17c-16 4 -28.667 6 -38 6c-16 0 -36.333 -6.33301 -61 -19l-41 59c35.333 23.333 65 35 89 35c10 0 25 -2.66699 45 -8c40 -10.667 66.333 -16 79 -16c13.333 0 32 6 56 18z" />
    <glyph glyph-name="hungarumlaut" unicode="&#x2dd;" 
d="M309 691l-135 -138l-49 46l134 138zM455 691l-134 -138l-50 46l135 138z" />
    <glyph glyph-name="Delta" unicode="&#x394;" horiz-adv-x="667" 
d="M643 0h-619l259 667h97zM332 557l-179 -475h359z" />
    <glyph glyph-name="Delta" unicode="&#x2206;" horiz-adv-x="667" 
d="M643 0h-619l259 667h97zM332 557l-179 -475h359z" />
    <glyph glyph-name="Omega" unicode="&#x3a9;" horiz-adv-x="666" 
d="M292 0l-263.999 -0.000976562v81h167c-56 33.333 -97.333 72.333 -124 117c-28.667 48.667 -43 104 -43 166c0 90.667 29.167 166.5 87.5 227.5s130.833 91.5 217.5 91.5s159.167 -30.5 217.5 -91.5s87.5 -136.833 87.5 -227.5c0 -122.667 -55.333 -217 -166 -283h166
v-81h-263v73c53.333 30 92.666 64 117.999 102c34.667 52 52 111.333 52 178c0 69.333 -20.5 128.166 -61.5 176.499s-90.833 72.5 -149.5 72.5c-60.667 0 -111.167 -23.667 -151.5 -71s-60.5 -106.666 -60.5 -177.999c0 -123.333 56.667 -216.666 170 -279.999v-73z" />
    <glyph glyph-name="Omega" unicode="&#x2126;" horiz-adv-x="666" 
d="M292 0l-263.999 -0.000976562v81h167c-56 33.333 -97.333 72.333 -124 117c-28.667 48.667 -43 104 -43 166c0 90.667 29.167 166.5 87.5 227.5s130.833 91.5 217.5 91.5s159.167 -30.5 217.5 -91.5s87.5 -136.833 87.5 -227.5c0 -122.667 -55.333 -217 -166 -283h166
v-81h-263v73c53.333 30 92.666 64 117.999 102c34.667 52 52 111.333 52 178c0 69.333 -20.5 128.166 -61.5 176.499s-90.833 72.5 -149.5 72.5c-60.667 0 -111.167 -23.667 -151.5 -71s-60.5 -106.666 -60.5 -177.999c0 -123.333 56.667 -216.666 170 -279.999v-73z" />
    <glyph glyph-name="pi" unicode="&#x3c0;" horiz-adv-x="606" 
d="M196 0h-90v418h-75v81h545v-81h-74v-418h-90v418h-216v-418z" />
    <glyph glyph-name="endash" unicode="&#x2013;" 
d="M33 293v84h434v-84h-434z" />
    <glyph glyph-name="emdash" unicode="&#x2014;" horiz-adv-x="755" 
d="M755 303v-93h-755v93h755z" />
    <glyph glyph-name="quoteleft" unicode="&#x2018;" horiz-adv-x="213" 
d="M153 442l-93 -0.000976562v100c0 70.667 31 112.334 93 125.001v-56c-22 -9.33301 -33 -26.333 -33 -51v-8h33v-110z" />
    <glyph glyph-name="quoteright" unicode="&#x2019;" horiz-adv-x="213" 
d="M60 667l93 0.000976562v-100c0 -70.667 -31 -112.334 -93 -125.001v56c22 8 33 25 33 51v8h-33v110z" />
    <glyph glyph-name="quotesinglbase" unicode="&#x201a;" horiz-adv-x="213" 
d="M60 110l93 0.000976562v-100c0 -70.667 -31 -112.334 -93 -125.001v56c22 9.33301 33 26.333 33 51v8h-33v110z" />
    <glyph glyph-name="quotedblleft" unicode="&#x201c;" horiz-adv-x="353" 
d="M153 442l-93 -0.000976562v100c0 70.667 31 112.334 93 125.001v-56c-22 -9.33301 -33 -26.333 -33 -51v-8h33v-110zM293 441.999l-93 -0.000976562v100c0 70.667 31 112.334 93 125.001v-56c-22 -9.33301 -33 -26.333 -33 -51v-8h33v-110z" />
    <glyph glyph-name="quotedblright" unicode="&#x201d;" horiz-adv-x="353" 
d="M60 667l93 0.000976562v-100c0 -70.667 -31 -112.334 -93 -125.001v56c22 8 33 25 33 51v8h-33v110zM200 667.001l93 0.000976562v-100c0 -70.667 -31 -112.334 -93 -125.001v56c22 8 33 25 33 51v8h-33v110z" />
    <glyph glyph-name="quotedblbase" unicode="&#x201e;" horiz-adv-x="353" 
d="M60 110l93 0.000976562v-100c0 -70.667 -31 -112.334 -93 -125.001v56c22 9.33301 33 26.333 33 51v8h-33v110zM200 110.001l93 0.000976562v-100c0 -70.667 -31 -112.334 -93 -125.001v56c22 9.33301 33 26.333 33 51v8h-33v110z" />
    <glyph glyph-name="dagger" unicode="&#x2020;" 
d="M203 667h94v-176h158v-85h-158v-573h-94v573h-158v85h158v176z" />
    <glyph glyph-name="daggerdbl" unicode="&#x2021;" 
d="M203 667h94v-176h158v-85h-158v-312h158v-85h-158v-176h-94v176h-158v85h158v312h-158v85h158v176z" />
    <glyph glyph-name="bullet" unicode="&#x2022;" horiz-adv-x="667" 
d="M196 340c0 38.667 13.5 71.667 40.5 99s59.5 41 97.5 41c37.333 0 69.5 -13.667 96.5 -41s40.5 -60.333 40.5 -99s-13.5 -71.667 -40.5 -99s-59.167 -41 -96.5 -41c-38 0 -70.5 13.667 -97.5 41s-40.5 60.333 -40.5 99z" />
    <glyph glyph-name="ellipsis" unicode="&#x2026;" horiz-adv-x="640" 
d="M153 110v-110h-93v110h93zM367 110v-110h-94v110h94zM580 110v-110h-93v110h93z" />
    <glyph glyph-name="perthousand" unicode="&#x2030;" horiz-adv-x="1277" 
d="M208 680c48.667 0 90 -16.5 124 -49.5s51 -72.833 51 -119.5c0 -47.333 -17 -87.833 -51 -121.5s-75.333 -50.5 -124 -50.5c-48 0 -89 16.833 -123 50.5s-51 74.167 -51 121.5c0 46.667 17 86.5 51 119.5s75 49.5 123 49.5zM668 328c48.667 0 90 -16.5 124 -49.5
s51 -72.833 51 -119.5c0 -47.333 -17 -87.833 -51 -121.5s-75.333 -50.5 -124 -50.5c-48 0 -89 16.833 -123 50.5s-51 74.167 -51 121.5c0 46.667 17 86.5 51 119.5s75 49.5 123 49.5zM606 667l-277 -667h-58l279 667h56zM1068 328c48.667 0 90 -16.5 124 -49.5
s51 -72.833 51 -119.5c0 -47.333 -17 -87.833 -51 -121.5s-75.333 -50.5 -124 -50.5c-48 0 -89 16.833 -123 50.5s-51 74.167 -51 121.5c0 46.667 17 86.5 51 119.5s75 49.5 123 49.5zM208 408c28 0 51.833 10 71.5 30s29.5 44 29.5 72s-9.83301 51.833 -29.5 71.5
s-43.5 29.5 -71.5 29.5c-27.333 0 -50.833 -9.83301 -70.5 -29.5s-29.5 -43.5 -29.5 -71.5s9.83301 -52 29.5 -72s43.167 -30 70.5 -30zM668 56c28 0 51.833 9.83301 71.5 29.5s29.5 43.834 29.5 72.501c0 28 -9.83301 51.833 -29.5 71.5s-43.5 29.5 -71.5 29.5
c-27.333 0 -50.833 -10 -70.5 -30s-29.5 -43.667 -29.5 -71c0 -28.667 9.83301 -52.834 29.5 -72.501s43.167 -29.5 70.5 -29.5zM1068 56c28 0 51.833 9.83301 71.5 29.5s29.5 43.834 29.5 72.501c0 28 -9.83301 51.833 -29.5 71.5s-43.5 29.5 -71.5 29.5
c-27.333 0 -50.833 -10 -70.5 -30s-29.5 -43.667 -29.5 -71c0 -28.667 9.83301 -52.834 29.5 -72.501s43.167 -29.5 70.5 -29.5z" />
    <glyph glyph-name="guilsinglleft" unicode="&#x2039;" horiz-adv-x="209" 
d="M40 302l123 123v-102l-67 -67l67 -67v-101l-123 121v93z" />
    <glyph glyph-name="guilsinglright" unicode="&#x203a;" horiz-adv-x="210" 
d="M169 211l-122 -123v103l67 66l-67 67v101l123 -121z" />
    <glyph glyph-name="fraction" unicode="&#x2044;" horiz-adv-x="134" 
d="M234 667l-277 -667h-57l278 667h56z" />
    <glyph glyph-name="trademark" unicode="&#x2122;" horiz-adv-x="779" 
d="M165 610v-323h-67v323h-78v57h222v-57h-77zM719 667v-380h-66v302l-133 -302h-41l-132 302v-302h-66v380h99l120 -281l120 281h99z" />
    <glyph glyph-name="partialdiff" unicode="&#x2202;" 
d="M70 589l11.999 79c112 -14 199 -49 261 -105c86 -78 129 -181.333 129 -310c0 -78.667 -21 -142.167 -63 -190.5s-97.333 -72.5 -166 -72.5c-62 0 -115 22 -159 66s-66 97.333 -66 160c0 61.333 20 113 60 155s89 63 147 63c54.667 0 101.334 -21.667 140.001 -65l-8 18
c-18.667 42 -39.667 75 -63 99s-54.5 45.667 -93.5 65s-82.5 32 -130.5 38zM243.999 358l-7 0.000976562c-36 -2 -66.167 -16.833 -90.5 -44.5s-36.5 -61.167 -36.5 -100.5s13 -72.833 39 -100.5s57.667 -41.5 95 -41.5c36.667 0 67.667 14.167 93 42.5
s38 63.166 38 104.499s-12.167 75 -36.5 101s-55.833 39 -94.5 39z" />
    <glyph glyph-name="product" unicode="&#x220f;" horiz-adv-x="709" 
d="M38 669v81h634v-81h-80v-838h80v-81h-253v81h82v838h-292v-838h80v-81h-251v81h80v838h-80z" />
    <glyph glyph-name="summation" unicode="&#x2211;" horiz-adv-x="667" 
d="M26 750h579v-233h-82l-8 152h-388l251 -400l-252 -438h398l5 153h85v-234h-588v91l247 428l-247 391v90z" />
    <glyph glyph-name="radical" unicode="&#x221a;" horiz-adv-x="667" 
d="M398 827l268.999 -0.00195312v-81h-191l-200 -746h-115l-74 290h-87v81h160l32 -114c2.66699 -9.33301 6.66699 -31.666 12 -66.999l11 -73h8c0.666992 3.33301 3.33398 18.666 8.00098 45.999l7 36c8.66699 44.667 16 80.334 22 107.001c2 8.66699 14 54.334 36 137.001
z" />
    <glyph glyph-name="infinity" unicode="&#x221e;" horiz-adv-x="667" 
d="M495 183c-62 0 -115.334 32.332 -160.001 96.999c-48 -64 -102 -96 -162 -96c-46 0 -83.333 14.5 -112 43.5s-43 66.833 -43 113.5c0 45.333 14.667 82.5 44 111.5s66.333 43.5 111 43.5c60.667 0 113.334 -32 158.001 -96c46 64 100.333 96 163 96
c45.333 0 82.5 -14.5 111.5 -43.5s43.5 -66.833 43.5 -113.5c0 -45.333 -14.5 -82.666 -43.5 -111.999s-65.833 -44 -110.5 -44zM480.999 414.999c-34.667 0 -69.001 -24.999 -103.001 -74.999c34 -50.667 68.667 -76 104 -76c21.333 0 39 7.16699 53 21.5s21 32.5 21 54.5
c0 21.333 -7.16699 39.166 -21.5 53.499s-32.166 21.5 -53.499 21.5zM184.998 264c34 0 68.667 24.999 104 74.999c-34 50.667 -68.667 76 -104 76c-21.333 0 -39.166 -7.16699 -53.499 -21.5s-21.5 -32.5 -21.5 -54.5c0 -21.333 7.16699 -39.166 21.5 -53.499
s32.166 -21.5 53.499 -21.5z" />
    <glyph glyph-name="integral" unicode="&#x222b;" 
d="M149 -249c-25.333 0 -48.332 3.33594 -68.999 10.0029l18 80c18.667 -7.33301 34.667 -11 48 -11c30.667 0 49.334 14.333 56.001 43c1.33301 7.33301 2 34.666 2 81.999v573c0 61.333 1.66699 102.166 5 122.499s11.333 38.166 24 53.499
c25.333 30.667 62.666 46 111.999 46c20.667 0 45.667 -3.66699 75 -11l-19 -80c-18 7.33301 -33.667 11 -47 11c-28.667 0 -46.667 -12.667 -54 -38c-2.66699 -9.33301 -4 -34 -4 -74v-586c0 -58 -1.5 -96.833 -4.5 -116.5s-9.83301 -37.167 -20.5 -52.5
c-24.667 -34.667 -65.334 -52 -122.001 -52z" />
    <glyph glyph-name="approxequal" unicode="&#x2248;" 
d="M143 411c-31.333 0 -59 -22.667 -83 -68l-51 33c35.333 81.333 82.333 122 141 122c26 0 62.667 -10.333 110 -31c44.667 -19.333 75.667 -29 93 -29c18.667 0 34 4.5 46 13.5s25 25.167 39 48.5l53 -31c-24 -49.333 -49.667 -82 -77 -98
c-22.667 -13.333 -46.667 -20 -72 -20c-20 0 -49.333 8 -88 24l-53 22c-22.667 9.33301 -42 14 -58 14zM143 233c-30.667 0 -58.333 -22.667 -83 -68l-51 33c36 82 83 123 141 123c24 0 60.667 -10.667 110 -32c44.667 -19.333 75.667 -29 93 -29c18.667 0 34 4.5 46 13.5
s25 25.5 39 49.5l53 -31c-24 -49.333 -49.667 -82.333 -77 -99c-22 -13.333 -46 -20 -72 -20c-20 0 -49.333 8 -88 24l-53 22c-22.667 9.33301 -42 14 -58 14z" />
    <glyph glyph-name="approxequal" unicode="&#x22f2;" 
d="M143 411c-31.333 0 -59 -22.667 -83 -68l-51 33c35.333 81.333 82.333 122 141 122c26 0 62.667 -10.333 110 -31c44.667 -19.333 75.667 -29 93 -29c18.667 0 34 4.5 46 13.5s25 25.167 39 48.5l53 -31c-24 -49.333 -49.667 -82 -77 -98
c-22.667 -13.333 -46.667 -20 -72 -20c-20 0 -49.333 8 -88 24l-53 22c-22.667 9.33301 -42 14 -58 14zM143 233c-30.667 0 -58.333 -22.667 -83 -68l-51 33c36 82 83 123 141 123c24 0 60.667 -10.667 110 -32c44.667 -19.333 75.667 -29 93 -29c18.667 0 34 4.5 46 13.5
s25 25.5 39 49.5l53 -31c-24 -49.333 -49.667 -82.333 -77 -99c-22 -13.333 -46 -20 -72 -20c-20 0 -49.333 8 -88 24l-53 22c-22.667 9.33301 -42 14 -58 14z" />
    <glyph glyph-name="notequal" unicode="&#x2260;" 
d="M33 452h236l55 111h72l-54 -111h125v-81h-161l-41 -85h202v-81h-239l-53 -108h-73l52 108h-120v81h157l41 85h-199v81z" />
    <glyph glyph-name="lessequal" unicode="&#x2264;" 
d="M33 425l434 200v-85l-338 -154l337 -153l1 -85l-434 200v77zM33 119h434v-81h-434v81z" />
    <glyph glyph-name="greaterequal" unicode="&#x2265;" 
d="M467 348l-434 -200v85l338 154l-337 153l-1 85l434 -200v-77zM467 38h-434v81h434v-81z" />
    <glyph glyph-name="lozenge" unicode="&#x25ca;" horiz-adv-x="667" 
d="M74 334l259 359l260 -359l-260 -360zM488 334l-155 212l-154 -212l154 -213z" />
    <glyph glyph-name="apple" unicode="&#xf000;" horiz-adv-x="667" 
d="M332 518c0.666992 48.667 14.168 88.167 40.501 118.5s62.166 48.5 107.499 54.5v-10c0 -43.333 -14.833 -81.333 -44.5 -114s-64.167 -49 -103.5 -49zM479.001 528c60.667 0 108.667 -23.667 144 -71c-53.333 -41.333 -80 -88 -80 -140c0 -70.667 33 -120 99 -148
c-52.667 -130.667 -109 -196 -169 -196c-12 0 -25.333 3 -40 9l-41 17c-6.66699 2.66699 -17.667 4 -33 4c-26 0 -43 -1.66699 -51 -5l-43 -18c-12.667 -5.33301 -25.334 -8 -38.001 -8c-36.667 0 -73.667 27.333 -111 82c-56 82.667 -84 166.667 -84 252
c0 64.667 17.333 117.5 52 158.5s79.667 61.5 135 61.5c20.667 0 46.334 -6 77.001 -18c20.667 -8 36.667 -12 48 -12c10.667 0 25 3.33301 43 10c39.333 14.667 70 22 92 22z" />
    <glyph glyph-name="fi" unicode="&#xf001;" horiz-adv-x="497" 
d="M167 415v-415h-94v415h-44v85h44v23c0 46.667 19 84.667 57 114c26 20 63.667 30 113 30h12v-82h-10c-52 0 -78 -20.667 -78 -62v-23h88v-85h-88zM343 500h94v-500h-94v500zM343 667h94v-110h-94v110z" />
    <glyph glyph-name="fl" unicode="&#xf002;" horiz-adv-x="497" 
d="M167 415v-415h-94v415h-44v85h44v23c0 46.667 19 84.667 57 114c26 20 63.667 30 113 30h12v-82h-10c-52 0 -78 -20.667 -78 -62v-23h88v-85h-88zM343 667h94v-667h-94v667z" />
    <glyph glyph-name=".null" horiz-adv-x="0" 
 />
    <glyph glyph-name="nonmarkingreturn" horiz-adv-x="250" 
 />
    <glyph glyph-name="glyph228" horiz-adv-x="280" 
 />
    </font>
</defs>
</svg>
